<svg version="1.1" xmlns="http://www.w3.org/2000/svg" xmlns:xlink="http://www.w3.org/1999/xlink" width="35" height="35"><defs/><g><path fill="rgb(255,255,255)" stroke="none" paint-order="stroke fill markers" fill-rule="evenodd" d=" M 31.164008855819702 12.47052001953125 C 29.915000081062317 12.142096042633057 26.974539637565613 12.145987033843994 22.675751328468323 12.03266191482544 C 22.87982928752899 11.094568252563477 22.925740957260132 10.248642444610596 22.925740957260132 8.747692584991455 C 22.925740957260132 5.1593475341796875 20.312415838241577 1.9986467361450195 17.999923706054688 1.9986467361450195 C 16.36718261241913 1.9986467361450195 15.020479440689087 3.333864688873291 14.999930739402771 4.975619792938232 C 14.977503299713135 6.989450931549072 14.355406045913696 10.46751070022583 10.999979257583618 12.231224060058594 C 10.753864526748657 12.360964298248291 10.04980731010437 12.708113670349121 9.947298645973206 12.753468036651611 C 9.947298645973206 12.753468036651611 10.000020742416382 12.797971248626709 10.000020742416382 12.797971248626709 C 9.474561095237732 12.344549179077148 8.747019648551941 11.999102115631104 7.999986290931702 11.999102115631104 C 7.999986290931702 11.999102115631104 4.999993324279785 11.999102115631104 4.999993324279785 11.999102115631104 C 3.3456467390060425 11.999102115631104 1.9998829364776611 13.344533920288086 1.9998829364776611 14.99869155883789 C 1.9998829364776611 14.99869155883789 1.9998829364776611 30.999298572540283 1.9998829364776611 30.999298572540283 C 1.9998829364776611 32.65357780456543 3.3456467390060425 33.99900960922241 4.999993324279785 33.99900960922241 C 4.999993324279785 33.99900960922241 7.999986290931702 33.99900960922241 7.999986290931702 33.99900960922241 C 9.190401911735535 33.99900960922241 10.185428738594055 33.281243324279785 10.667912244796753 32.272868633270264 C 10.679654359817505 32.2767596244812 10.701142430305481 32.28296089172363 10.714763283729553 32.283812046051025 C 10.78122365474701 32.30168628692627 10.85836935043335 32.3212628364563 10.954067587852478 32.34704065322876 C 10.971680760383606 32.3509316444397 10.981309294700623 32.35251235961914 10.999979257583618 32.358835220336914 C 11.576164841651917 32.501099586486816 12.6846204996109 32.766902923583984 15.054648995399475 33.311033725738525 C 15.563434839248657 33.426669120788574 18.24603843688965 33.99900960922241 21.028215169906616 33.99900960922241 C 21.028215169906616 33.99900960922241 26.494052290916443 33.99900960922241 26.494052290916443 33.99900960922241 C 28.161080360412598 33.99900960922241 29.361241936683655 33.35869836807251 30.076101899147034 32.07114505767822 C 30.086904644966125 32.05156850814819 30.317402362823486 31.602888584136963 30.504806518554688 30.995407581329346 C 30.645477056503296 30.538094520568848 30.698081731796265 29.892311573028564 30.52829074859619 29.23558521270752 C 31.60152006149292 28.497634410858154 31.947207927703857 27.381284713745117 32.17289137840271 26.655006885528564 C 32.54875648021698 25.46436357498169 32.435445070266724 24.56919240951538 32.17371332645416 23.92888116836548 C 32.77725803852081 23.358242988586426 33.29297173023224 22.488849639892578 33.51067054271698 21.163845539093018 C 33.64547002315521 20.34053611755371 33.500924587249756 19.495461463928223 33.12106716632843 18.790340900421143 C 33.687506794929504 18.15550136566162 33.94630300998688 17.35420036315918 33.97460150718689 16.61466884613037 C 33.97460150718689 16.61466884613037 33.986226201057434 16.405892848968506 33.986226201057434 16.405892848968506 C 33.99409341812134 16.273842334747314 33.999964475631714 16.192496299743652 33.999964475631714 15.904806137084961 C 33.999964475631714 14.641449928283691 33.125998854637146 13.030944347381592 31.164008855819702 12.47052001953125 Z M 8.999944806098938 30.999298572540283 C 8.999944806098938 31.552062511444092 8.552687644958496 31.99916172027588 7.999986290931702 31.99916172027588 C 7.999986290931702 31.99916172027588 4.999993324279785 31.99916172027588 4.999993324279785 31.99916172027588 C 4.447291970252991 31.99916172027588 3.9999173879623413 31.552062511444092 3.9999173879623413 30.999298572540283 C 3.9999173879623413 30.999298572540283 3.9999173879623413 14.99869155883789 3.9999173879623413 14.99869155883789 C 3.9999173879623413 14.445198059082031 4.447291970252991 13.998098850250244 4.999993324279785 13.998098850250244 C 4.999993324279785 13.998098850250244 7.999986290931702 13.998098850250244 7.999986290931702 13.998098850250244 C 8.552687644958496 13.998098850250244 8.999944806098938 14.445198059082031 8.999944806098938 14.99869155883789 C 8.999944806098938 14.99869155883789 8.999944806098938 30.999298572540283 8.999944806098938 30.999298572540283 Z M 31.977502584457397 16.53332281112671 C 31.95695388317108 17.028208255767822 31.749940395355225 17.99840259552002 30.00001299381256 17.99840259552002 C 28.4999577999115 17.99840259552002 27.99997854232788 17.99840259552002 27.99997854232788 17.99840259552002 C 27.72356915473938 17.99840259552002 27.499999284744263 18.222012996673584 27.499999284744263 18.498759746551514 C 27.499999284744263 18.77465534210205 27.72356915473938 18.998265743255615 27.99997854232788 18.998265743255615 C 27.99997854232788 18.998265743255615 28.4374897480011 18.998265743255615 29.937427520751953 18.998265743255615 C 31.437482714653015 18.998265743255615 31.634750247001648 20.242896556854248 31.53705585002899 20.84247398376465 C 31.41493785381317 21.58905792236328 31.064435720443726 22.99856948852539 29.375919580459595 22.99856948852539 C 27.687403440475464 22.99856948852539 26.999902606010437 22.99856948852539 26.999902606010437 22.99856948852539 C 26.723610639572144 22.99856948852539 26.49992334842682 23.222179889678955 26.49992334842682 23.498197078704834 C 26.49992334842682 23.774943828582764 26.723610639572144 23.99928379058838 26.999902606010437 23.99928379058838 C 26.999902606010437 23.99928379058838 28.18750011920929 23.99928379058838 28.968820452690125 23.99928379058838 C 30.656279802322388 23.99928379058838 30.508798837661743 25.286107540130615 30.26561963558197 26.05384874343872 C 29.947290897369385 27.063804149627686 29.751902103424072 27.998857975006104 27.62599217891693 27.998857975006104 C 26.906200528144836 27.998857975006104 25.994073033332825 27.998857975006104 25.994073033332825 27.998857975006104 C 25.71778106689453 27.998857975006104 25.494093775749207 28.221617221832275 25.494093775749207 28.499215126037598 C 25.494093775749207 28.774381160736084 25.71778106689453 28.999572277069092 25.994073033332825 28.999572277069092 C 25.994073033332825 28.999572277069092 26.687444925308228 28.999572277069092 27.562467336654663 28.999572277069092 C 28.656245350837708 28.999572277069092 28.707910656929016 30.033846378326416 28.593777298927307 30.405192852020264 C 28.4687237739563 30.81167984008789 28.321242809295654 31.112623691558838 28.314432382583618 31.125998973846436 C 28.011603236198425 31.670859336853027 27.525362253189087 31.99916172027588 26.494052290916443 31.99916172027588 C 26.494052290916443 31.99916172027588 21.028215169906616 31.99916172027588 21.028215169906616 31.99916172027588 C 18.281264781951904 31.99916172027588 15.557563781738281 31.37611675262451 15.487228512763977 31.36043119430542 C 11.332985639572144 30.402760982513428 11.114230036735535 30.329318523406982 10.853437662124634 30.255024909973145 C 10.853437662124634 30.255024909973145 10.007770538330078 30.112760543823242 10.007770538330078 29.374809741973877 C 10.007770538330078 29.374809741973877 10.000020742416382 15.561547756195068 10.000020742416382 15.561547756195068 C 10.000020742416382 15.093291282653809 10.298740148544312 14.669538021087646 10.793787717819214 14.52022123336792 C 10.855433821678162 14.496024131774902 10.939507365226746 14.470246315002441 10.999979257583618 14.44446849822998 C 15.568366527557373 12.553325176239014 16.958985209465027 8.404434204101562 16.99996519088745 4.998236179351807 C 17.005836248397827 4.519765853881836 17.37500834465027 3.998373031616211 17.999923706054688 3.998373031616211 C 19.057536005973816 3.998373031616211 20.92570650577545 6.120908737182617 20.92570650577545 8.747692584991455 C 20.92570650577545 11.118035793304443 20.83106505870819 11.526833057403564 19.999958157539368 13.998098850250244 C 30.00001299381256 13.998098850250244 29.929677724838257 14.14194393157959 30.81244993209839 14.37333631515503 C 31.906227946281433 14.685953140258789 31.999930024147034 15.59206771850586 31.999930024147034 15.904806137084961 C 31.999930024147034 16.24721336364746 31.99018406867981 16.197238445281982 31.977502584457397 16.53332281112671 Z M 6.49993109703064 27.998857975006104 C 5.671877145767212 27.998857975006104 4.999993324279785 28.670418739318848 4.999993324279785 29.499078273773193 C 4.999993324279785 30.32700824737549 5.671877145767212 30.999298572540283 6.49993109703064 30.999298572540283 C 7.328102469444275 30.999298572540283 7.999986290931702 30.32700824737549 7.999986290931702 29.499078273773193 C 7.999986290931702 28.670418739318848 7.328102469444275 27.998857975006104 6.49993109703064 27.998857975006104 Z M 6.49993109703064 29.998584270477295 C 6.224578499794006 29.998584270477295 5.9999518394470215 29.77351474761963 5.9999518394470215 29.499078273773193 C 5.9999518394470215 29.223912239074707 6.224578499794006 28.999572277069092 6.49993109703064 28.999572277069092 C 6.7754011154174805 28.999572277069092 6.999910354614258 29.223912239074707 6.999910354614258 29.499078273773193 C 6.999910354614258 29.77351474761963 6.7754011154174805 29.998584270477295 6.49993109703064 29.998584270477295 Z"/></g></svg>