<svg version="1.1" xmlns="http://www.w3.org/2000/svg" xmlns:xlink="http://www.w3.org/1999/xlink" width="36" height="35"><defs/><g><path fill="rgb(255,255,255)" stroke="none" paint-order="stroke fill markers" fill-rule="evenodd" d=" M 33.1094012260437 30.334790229797363 C 32.90919816493988 30.20188856124878 29.261627554893494 27.809658527374268 23.8368878364563 26.636159896850586 C 25.827058911323547 24.113460063934326 27.104483604431152 20.72282600402832 27.647439002990723 18.46665906906128 C 28.400343418121338 15.338058948516846 28.108317017555237 9.218259334564209 25.104449152946472 5.404844760894775 C 23.348533272743225 3.1767659187316895 20.89149570465088 1.9986467361450195 17.99999988079071 1.9986467361450195 C 15.108386635780334 1.9986467361450195 12.651349067687988 3.1767659187316895 10.895433187484741 5.404844760894775 C 7.891565322875977 9.218259334564209 7.5995389223098755 15.338058948516846 8.35244333744049 18.46665906906128 C 8.895516157150269 20.72282600402832 10.172823429107666 24.113460063934326 12.162994503974915 26.636159896850586 C 6.73825478553772 27.809658527374268 3.0908015966415405 30.20188856124878 2.8905985355377197 30.334790229797363 C 2.1571860313415527 30.823352813720703 1.8300507068634033 31.734939098358154 2.0859113931655884 32.57770347595215 C 2.3407152891159058 33.42119741439819 3.1191000938415527 33.99900960922241 3.9999935626983643 33.99900960922241 C 3.9999935626983643 33.99900960922241 31.99988877773285 33.99900960922241 31.99988877773285 33.99900960922241 C 32.88089966773987 33.99900960922241 33.65916705131531 33.42119741439819 33.91408836841583 32.57770347595215 C 34.16983163356781 31.734939098358154 33.84281373023987 30.823352813720703 33.1094012260437 30.334790229797363 Z M 22.266497373580933 25.397122383117676 C 22.266497373580933 25.397122383117676 21.93947947025299 25.81224250793457 21.93947947025299 25.81224250793457 C 19.55465590953827 28.551621913909912 16.445226430892944 28.551621913909912 14.060402870178223 25.81224250793457 C 14.060402870178223 25.81224250793457 13.73338496685028 25.397122383117676 13.73338496685028 25.397122383117676 C 10.948155283927917 21.867385387420654 9.566343188285828 17.200992584228516 10.161081314086914 12.74799633026123 C 10.706972241401672 8.46851396560669 13.15919554233551 3.998373031616211 17.99999988079071 3.998373031616211 C 22.84080421924591 3.998373031616211 25.29291009902954 8.46851396560669 25.8388010263443 12.74799633026123 C 26.430603623390198 17.20257329940796 25.053605794906616 21.866655826568604 22.266497373580933 25.397122383117676 Z M 3.9999935626983643 31.99916172027588 C 4.137611150741577 31.906993865966797 7.526385545730591 29.685116291046143 12.585828065872192 28.59138298034668 C 12.585828065872192 28.59138298034668 15.07022476196289 28.05284547805786 15.07022476196289 28.05284547805786 C 15.956049919128418 28.63600778579712 16.92970609664917 28.999572277069092 17.99999988079071 28.999572277069092 C 19.07029366493225 28.999572277069092 20.043832421302795 28.63600778579712 20.929657578468323 28.05284547805786 C 20.929657578468323 28.05284547805786 23.41405427455902 28.59138298034668 23.41405427455902 28.59138298034668 C 28.434512972831726 29.676483154296875 31.81048846244812 31.87331247329712 31.99988877773285 31.99916172027588 C 31.99988877773285 31.99916172027588 3.9999935626983643 31.99916172027588 3.9999935626983643 31.99916172027588 Z"/></g></svg>