<svg version="1.1" xmlns="http://www.w3.org/2000/svg" xmlns:xlink="http://www.w3.org/1999/xlink" width="35" height="35"><defs/><g><path fill="rgb(255,255,255)" stroke="none" paint-order="stroke fill markers" fill-rule="evenodd" d=" M 22.681498289108276 5.731870174407959 C 22.209465265274048 5.258871555328369 21.581496953964233 4.999391078948975 20.914075136184692 4.999391078948975 C 20.246066212654114 4.999391078948975 19.618685007095337 5.258871555328369 19.145477771759033 5.732721328735352 C 19.145477771759033 5.732721328735352 17.734310388565063 7.144543170928955 17.734310388565063 7.144543170928955 C 17.26110315322876 7.615961074829102 17.000428199768066 8.24447774887085 16.999958515167236 8.9137282371521 C 16.999958515167236 9.384294986724854 17.128886938095093 9.83467721939087 17.371009349822998 10.226329803466797 C 17.371009349822998 10.226329803466797 3.7943062782287598 15.66508436203003 3.7943062782287598 15.66508436203003 C 2.886640787124634 16.064640522003174 2.235305666923523 16.882356643676758 2.0521286725997925 17.85486125946045 C 1.8676600456237793 18.831256866455078 2.177182197570801 19.83355188369751 2.886640787124634 20.541104316711426 C 2.886640787124634 20.541104316711426 15.606873989105225 33.121408462524414 15.606873989105225 33.121408462524414 C 16.15476107597351 33.66943025588989 16.882772207260132 33.9813175201416 17.651880741119385 33.997732639312744 C 17.668906807899475 33.998462200164795 17.711413264274597 33.998462200164795 17.728439331054688 33.998462200164795 C 17.930638551712036 33.998462200164795 18.134716510772705 33.97900724411011 18.338794469833374 33.936814308166504 C 19.331942558288574 33.73034858703613 20.146962761878967 33.04395341873169 20.51554775238037 32.10817003250122 C 20.51554775238037 32.10817003250122 25.857388138771057 18.732766151428223 25.857388138771057 18.732766151428223 C 26.26061236858368 18.99783992767334 26.731823444366455 19.13937473297119 27.225579380989075 19.13937473297119 C 27.893940567970276 19.13937473297119 28.522495985031128 18.879772663116455 28.993119955062866 18.406044483184814 C 28.993119955062866 18.406044483184814 30.401351809501648 16.9988431930542 30.401351809501648 16.9988431930542 C 30.877377152442932 16.52511501312256 31.139578580856323 15.896476745605469 31.139578580856323 15.225767135620117 C 31.139578580856323 14.555057525634766 30.877377152442932 13.925689697265625 30.406635761260986 13.458162784576416 C 30.406635761260986 13.458162784576416 22.681498289108276 5.731870174407959 22.681498289108276 5.731870174407959 Z M 18.658179998397827 31.366328239440918 C 18.534652948379517 31.67979621887207 18.261179089546204 31.910337448120117 17.932047605514526 31.978429794311523 C 17.855958700180054 31.993993759155273 17.779282689094543 32.0010461807251 17.703076362609863 31.998735904693604 C 17.449094414711 31.993264198303223 17.204506158828735 31.89088249206543 17.020976901054382 31.707154750823975 C 17.020976901054382 31.707154750823975 4.292993903160095 19.119798183441162 4.292993903160095 19.119798183441162 C 4.059090971946716 18.885244369506836 3.955995202064514 18.551470279693604 4.017523884773254 18.226937294006348 C 4.0785828828811646 17.902525901794434 4.296868801116943 17.62894058227539 4.598993420600891 17.496768474578857 C 4.598993420600891 17.496768474578857 10.816325902938843 15.00531816482544 10.816325902938843 15.00531816482544 C 15.005795121192932 16.398414611816406 19.19573402404785 15.056873798370361 23.3861426115036 19.527865886688232 C 23.3861426115036 19.527865886688232 18.658179998397827 31.366328239440918 18.658179998397827 31.366328239440918 Z M 28.992180585861206 15.579117774963379 C 28.992180585861206 15.579117774963379 27.57901704311371 16.992520332336426 27.57901704311371 16.992520332336426 C 27.383275985717773 17.188772201538086 27.06729567050934 17.188772201538086 26.872024297714233 16.992520332336426 C 26.872024297714233 16.992520332336426 25.104483723640442 15.225767135620117 25.104483723640442 15.225767135620117 C 25.104483723640442 15.225767135620117 23.671358585357666 18.814841747283936 23.671358585357666 18.814841747283936 C 23.671358585357666 18.814841747283936 23.79195010662079 18.511587619781494 23.79195010662079 18.511587619781494 C 20.78162407875061 15.506404876708984 17.72209858894348 15.128005981445312 14.96234929561615 14.7887601852417 C 14.075115084648132 14.680055618286133 13.215709686279297 14.566730499267578 12.370042562484741 14.383732318878174 C 12.370042562484741 14.383732318878174 20.86170530319214 10.982276439666748 20.86170530319214 10.982276439666748 C 20.86170530319214 10.982276439666748 19.146417140960693 9.267808437347412 19.146417140960693 9.267808437347412 C 18.95114576816559 9.072407722473145 18.95114576816559 8.755778312683105 19.146886825561523 8.561107158660889 C 19.146886825561523 8.561107158660889 20.560402631759644 7.146123886108398 20.560402631759644 7.146123886108398 C 20.755908846855164 6.949872016906738 21.07224142551422 6.949872016906738 21.267512798309326 7.146123886108398 C 21.267512798309326 7.146123886108398 28.992180585861206 14.871565341949463 28.992180585861206 14.871565341949463 C 29.18897843360901 15.067817211151123 29.18897843360901 15.383717060089111 28.992180585861206 15.579117774963379 Z M 18.49989628791809 22.998994827270508 C 19.878303170204163 22.998994827270508 20.99990999698639 21.87863254547119 20.99990999698639 20.499640941619873 C 20.99990999698639 19.120527744293213 19.878303170204163 17.999557495117188 18.49989628791809 17.999557495117188 C 17.121606826782227 17.999557495117188 15.999882578849792 19.120527744293213 15.999882578849792 20.499640941619873 C 15.999882578849792 21.87863254547119 17.121606826782227 22.998994827270508 18.49989628791809 22.998994827270508 Z M 18.49989628791809 18.999420642852783 C 19.328537344932556 18.999420642852783 19.999951481819153 19.670981407165527 19.999951481819153 20.499640941619873 C 19.999951481819153 21.327570915222168 19.328537344932556 21.99901008605957 18.49989628791809 21.99901008605957 C 17.671372652053833 21.99901008605957 16.999958515167236 21.327570915222168 16.999958515167236 20.499640941619873 C 16.999958515167236 19.670981407165527 17.671372652053833 18.999420642852783 18.49989628791809 18.999420642852783 Z M 31.4999440908432 1.9996800422668457 C 30.12153720855713 1.9996800422668457 28.999930381774902 3.120771884918213 28.999930381774902 4.4990339279174805 C 28.999930381774902 5.878025531768799 30.12153720855713 6.999117374420166 31.4999440908432 6.999117374420166 C 32.87835097312927 6.999117374420166 33.9999577999115 5.878025531768799 33.9999577999115 4.4990339279174805 C 33.9999577999115 3.120771884918213 32.87835097312927 1.9996800422668457 31.4999440908432 1.9996800422668457 Z M 31.4999440908432 5.99925422668457 C 30.671303033828735 5.99925422668457 30.000006318092346 5.326963901519775 30.000006318092346 4.4990339279174805 C 30.000006318092346 3.6703743934631348 30.671303033828735 2.9995431900024414 31.4999440908432 2.9995431900024414 C 32.328585147857666 2.9995431900024414 32.99999928474426 3.6703743934631348 32.99999928474426 4.4990339279174805 C 32.99999928474426 5.326963901519775 32.328585147857666 5.99925422668457 31.4999440908432 5.99925422668457 Z M 9.99989664554596 18.999420642852783 C 9.99989664554596 20.101665496826172 10.896994233131409 20.999146938323975 11.99993109703064 20.999146938323975 C 13.102985382080078 20.999146938323975 13.99996554851532 20.101665496826172 13.99996554851532 18.999420642852783 C 13.99996554851532 17.896324634552002 13.102985382080078 16.9988431930542 11.99993109703064 16.9988431930542 C 10.896994233131409 16.9988431930542 9.99989664554596 17.896324634552002 9.99989664554596 18.999420642852783 Z M 11.99993109703064 17.999557495117188 C 12.552162766456604 17.999557495117188 12.999889612197876 18.446656703948975 12.999889612197876 18.999420642852783 C 12.999889612197876 19.5513334274292 12.552162766456604 19.99928379058838 11.99993109703064 19.99928379058838 C 11.447699427604675 19.99928379058838 10.999972581863403 19.5513334274292 10.999972581863403 18.999420642852783 C 10.999972581863403 18.446656703948975 11.447699427604675 17.999557495117188 11.99993109703064 17.999557495117188 Z M 14.999924063682556 25.999435424804688 C 15.55215573310852 25.999435424804688 15.999882578849792 25.55221462249756 15.999882578849792 24.99945068359375 C 15.999882578849792 24.44595718383789 15.55215573310852 23.999587535858154 14.999924063682556 23.999587535858154 C 14.447692394256592 23.999587535858154 13.99996554851532 24.44595718383789 13.99996554851532 24.99945068359375 C 13.99996554851532 25.55221462249756 14.447692394256592 25.999435424804688 14.999924063682556 25.999435424804688 Z M 30.999964833259583 8.9989652633667 C 30.447733163833618 8.9989652633667 30.000006318092346 9.446915626525879 30.000006318092346 9.998828411102295 C 30.000006318092346 10.552321910858154 30.447733163833618 10.99869155883789 30.999964833259583 10.99869155883789 C 31.552196502685547 10.99869155883789 31.99992334842682 10.552321910858154 31.99992334842682 9.998828411102295 C 31.99992334842682 9.446915626525879 31.552196502685547 8.9989652633667 30.999964833259583 8.9989652633667 Z"/></g></svg>