<svg version="1.1" xmlns="http://www.w3.org/2000/svg" xmlns:xlink="http://www.w3.org/1999/xlink" width="36" height="36"><defs/><g><path fill="rgb(13,13,13)" stroke="none" paint-order="stroke fill markers" fill-rule="evenodd" d=" M 33.41451108455658 12.585333347320557 C 33.41451108455658 12.585333347320557 23.414573669433594 2.5848779678344727 23.414573669433594 2.5848779678344727 C 22.918469309806824 2.089141368865967 22.19961702823639 1.8898496627807617 21.519044041633606 2.057162284851074 C 21.15961790084839 2.1462903022766113 20.839410424232483 2.330747604370117 20.585428476333618 2.5848779678344727 C 20.358805656433105 2.811528205871582 20.187018513679504 3.093017101287842 20.089324116706848 3.4080657958984375 C 19.63525652885437 4.876185417175293 18.852057456970215 6.153646469116211 17.693815231323242 7.312189102172852 C 16.14596962928772 8.858614921569824 14.13031816482544 10.03041124343872 11.996541023254395 11.26871919631958 C 9.732896089553833 12.581320762634277 7.394101619720459 13.940857410430908 5.477083921432495 15.857048988342285 C 3.848217725753784 17.487739086151123 2.738705277442932 19.301548957824707 2.089366316795349 21.40754795074463 C 1.8706107139587402 22.11826181411743 2.0609503984451294 22.88831329345703 2.585470676422119 23.413597106933594 C 2.585470676422119 23.413597106933594 12.585408091545105 33.41332292556763 12.585408091545105 33.41332292556763 C 13.081512451171875 33.90893793106079 13.800247311592102 34.10908079147339 14.480937719345093 33.941038608551025 C 14.840246438980103 33.851059436798096 15.160688757896423 33.66733169555664 15.41455328464508 33.41332292556763 C 15.641058683395386 33.186551094055176 15.812963247299194 32.90518379211426 15.91065764427185 32.58928394317627 C 16.36472523212433 31.12031316757202 17.147924304008484 29.842973709106445 18.307105898857117 28.685160636901855 C 19.85401213169098 27.138005256652832 21.86954617500305 25.967668056488037 24.004380106925964 24.729360103607178 C 26.267085671424866 23.415177822113037 28.605997562408447 22.055641174316406 30.522897839546204 20.140300750732422 C 32.15188145637512 18.511069774627686 33.26115906238556 16.6943416595459 33.91061544418335 14.588950634002686 C 34.12937104701996 13.879939079284668 33.93891394138336 13.109036445617676 33.41451108455658 12.585333347320557 Z M 14.000450372695923 31.999069213867188 C 10.687999725341797 28.6867413520813 7.311906814575195 25.31021213531494 3.9994561672210693 21.999464988708496 C 6.841282844543457 12.797878742218018 19.15864408016205 13.200474739074707 21.99941396713257 3.9990100860595703 C 25.311982035636902 7.309878826141357 28.687957525253296 10.687137603759766 32.00040817260742 13.998735904693604 C 29.15869891643524 23.197890281677246 16.841220259666443 22.7983341217041 14.000450372695923 31.999069213867188 Z M 21.56096339225769 16.899105072021484 C 21.23488485813141 16.626249313354492 20.90669274330139 16.440211296081543 20.576621890068054 16.34877300262451 C 20.248429775238037 16.25721311569214 19.920355081558228 16.219762325286865 19.58840548992157 16.243229866027832 C 19.260213375091553 16.2681565284729 18.92427146434784 16.34330129623413 18.588329553604126 16.472311973571777 C 18.25250506401062 16.602781772613525 17.91456699371338 16.74589729309082 17.57463276386261 16.909318923950195 C 17.037548422813416 16.291624069213867 16.50046408176422 15.682683944702148 15.963379740715027 15.116666316986084 C 16.205502152442932 14.896946907043457 16.43999218940735 14.785932064056396 16.666497588157654 14.778150081634521 C 16.893120408058167 14.768787384033203 17.111758589744568 14.79225492477417 17.318889498710632 14.845391273498535 C 17.529777884483337 14.896946907043457 17.723170518875122 14.942301273345947 17.9008287191391 14.97829294204712 C 18.08060050010681 15.012703895568848 18.236770629882812 14.974401950836182 18.373448848724365 14.858644962310791 C 18.517994284629822 14.733646869659424 18.598192930221558 14.571805953979492 18.609817624092102 14.375554084777832 C 18.619563579559326 14.178572654724121 18.545353412628174 13.987792491912842 18.38131606578827 13.80017375946045 C 18.170310258865356 13.557837963104248 17.9164457321167 13.410831451416016 17.611737847328186 13.356843948364258 C 17.31090486049652 13.303707599639893 17.002439498901367 13.30759859085083 16.681997179985046 13.37800121307373 C 16.36566460132599 13.450714111328125 16.06494903564453 13.56951093673706 15.779733061790466 13.737553119659424 C 15.494517087936401 13.904865741729736 15.266015529632568 14.07765007019043 15.096107125282288 14.245813846588135 C 15.030820965766907 14.182463645935059 14.966239333152771 14.121423721313477 14.900835752487183 14.06208610534668 C 14.82850432395935 13.994844913482666 14.738794565200806 13.960433959960938 14.631354212760925 13.96201467514038 C 14.521917700767517 13.96201467514038 14.432090520858765 14.008828163146973 14.357880353927612 14.094916343688965 C 14.285666346549988 14.178572654724121 14.25243616104126 14.276212215423584 14.266057014465332 14.37944507598877 C 14.275802969932556 14.488149642944336 14.318779110908508 14.569374084472656 14.39298927783966 14.631994724273682 C 14.458392858505249 14.68671178817749 14.522974491119385 14.741428852081299 14.588378071784973 14.79772663116455 C 14.33239996433258 15.106452465057373 14.121511578559875 15.448130130767822 13.95559549331665 15.807803630828857 C 13.78756582736969 16.168936252593994 13.687992691993713 16.526177883148193 13.650887608528137 16.874056816101074 C 13.611786365509033 17.2235164642334 13.64889144897461 17.544036865234375 13.75633180141449 17.841089725494385 C 13.86377215385437 18.13984489440918 14.060922265052795 18.393853664398193 14.350013136863708 18.63460874557495 C 14.820754528045654 19.024802207946777 15.375452041625977 19.190534114837646 16.01809799671173 19.15296173095703 C 16.65863037109375 19.114659786224365 17.350006103515625 18.922298908233643 18.092225193977356 18.524445056915283 C 18.683088421821594 19.206098079681396 19.274891018867493 19.883981704711914 19.865636825561523 20.513227939605713 C 19.615647196769714 20.72358465194702 19.397009015083313 20.84469175338745 19.20349895954132 20.88384485244751 C 19.010223746299744 20.92445707321167 18.838319182395935 20.920566082000732 18.682031631469727 20.87448215484619 C 18.525861501693726 20.825236797332764 18.38131606578827 20.755563735961914 18.248395323753357 20.664976596832275 C 18.11570942401886 20.573416709899902 17.984902262687683 20.495232105255127 17.8539776802063 20.43042278289795 C 17.725049257278442 20.36622142791748 17.592245936393738 20.3310809135437 17.455567717552185 20.329500198364258 C 17.318889498710632 20.327189922332764 17.17422664165497 20.393701553344727 17.01418161392212 20.5312237739563 C 16.850026845932007 20.67275857925415 16.768066883087158 20.83922004699707 16.768066883087158 21.026838779449463 C 16.768066883087158 21.21214723587036 16.854019165039062 21.402076244354248 17.021931409835815 21.592856407165527 C 17.191839814186096 21.784366130828857 17.412591576576233 21.943896770477295 17.68019437789917 22.071326732635498 C 17.947797179222107 22.19802713394165 18.248395323753357 22.27852201461792 18.58057975769043 22.29955768585205 C 18.912529349327087 22.323025226593018 19.26220953464508 22.27305030822754 19.631381630897522 22.136257648468018 C 20.002432465553284 22.000924110412598 20.369608402252197 21.757007598876953 20.730913281440735 21.394294261932373 C 20.90575337409973 21.56318759918213 21.081532835960388 21.72575807571411 21.256372928619385 21.882127285003662 C 21.330583095550537 21.94620704650879 21.42041027545929 21.97745656967163 21.52972936630249 21.969674587249756 C 21.63529098033905 21.96578359603882 21.72711431980133 21.91726779937744 21.799210906028748 21.828990936279297 C 21.8734210729599 21.73913335800171 21.904772520065308 21.63979148864746 21.893030405044556 21.536558628082275 C 21.88328444957733 21.430285930633545 21.84030830860138 21.350520610809326 21.768094301223755 21.29191255569458 C 21.59219741821289 21.151958465576172 21.416417956352234 21.003371238708496 21.240638494491577 20.847123622894287 C 21.539592742919922 20.479668140411377 21.7797189950943 20.092636108398438 21.957494616508484 19.710346221923828 C 22.13527023792267 19.324894905090332 22.240597009658813 18.954399585723877 22.27582335472107 18.610411643981934 C 22.310932278633118 18.264842987060547 22.269952297210693 17.952104568481445 22.156758308410645 17.669156551361084 C 22.04532563686371 17.382195949554443 21.846179366111755 17.135969161987305 21.56096339225769 16.899105072021484 Z M 15.971129536628723 17.57686710357666 C 15.687909722328186 17.588661670684814 15.440855622291565 17.49564266204834 15.225035548210144 17.286137104034424 C 15.133212208747864 17.19846820831299 15.068865418434143 17.091465950012207 15.029764175415039 16.964035987854004 C 14.988784193992615 16.83733558654785 14.975045919418335 16.698232650756836 14.990662932395935 16.545754432678223 C 15.004401206970215 16.395586490631104 15.049256086349487 16.239338874816895 15.127458572387695 16.0813889503479 C 15.201668739318848 15.922709465026855 15.310987830162048 15.764759540557861 15.451658368110657 15.61313247680664 C 15.958448052406311 16.11652946472168 16.464415788650513 16.66929340362549 16.971205472946167 17.241512298583984 C 16.588412523269653 17.452598571777344 16.25434935092926 17.565194129943848 15.971129536628723 17.57686710357666 Z M 20.687937140464783 19.579025268554688 C 20.59810996055603 19.74560832977295 20.494544506072998 19.894073963165283 20.373483300209045 20.02308464050293 C 19.813971519470215 19.456337451934814 19.253402948379517 18.83475160598755 18.693891167640686 18.19602108001709 C 18.836323022842407 18.131941318511963 18.98673951625824 18.065551280975342 19.148898124694824 17.997458934783936 C 19.3109393119812 17.92875862121582 19.473097920417786 17.88413381576538 19.63525652885437 17.856775283813477 C 19.801290035247803 17.830997467041016 19.9652099609375 17.83877944946289 20.129364728927612 17.878662109375 C 20.29140591621399 17.91854476928711 20.44569730758667 18.007672786712646 20.588364005088806 18.14604616165161 C 20.728917121887207 18.28600025177002 20.818861722946167 18.433006763458252 20.853970646858215 18.590835094451904 C 20.89307188987732 18.751095294952393 20.89495062828064 18.912936210632324 20.867708921432495 19.079519271850586 C 20.838353633880615 19.245251178741455 20.779760479927063 19.410983085632324 20.687937140464783 19.579025268554688 Z M 16.717223525047302 24.179028034210205 C 16.717223525047302 24.179028034210205 16.715227365493774 24.179028034210205 16.715227365493774 24.179028034210205 C 16.090312004089355 24.65980863571167 15.479956865310669 25.165637493133545 14.915513396263123 25.73165512084961 C 14.372557997703552 26.274934768676758 13.881385326385498 26.846424102783203 13.454559445381165 27.431167125701904 C 13.454559445381165 27.431167125701904 12.770933508872986 28.363789081573486 12.770933508872986 28.363789081573486 C 12.770933508872986 28.363789081573486 12.772929668426514 28.366220951080322 12.772929668426514 28.366220951080322 C 12.647993564605713 28.56162166595459 12.669364213943481 28.82353401184082 12.83939003944397 28.993156909942627 C 13.034661412239075 29.188557624816895 13.35299015045166 29.188557624816895 13.549200892448425 28.993156909942627 C 13.579612970352173 28.962636947631836 13.60297977924347 28.9290771484375 13.623411059379578 28.89381504058838 C 13.623411059379578 28.89381504058838 14.262182116508484 28.01834201812744 14.262182116508484 28.01834201812744 C 14.65859591960907 27.477251052856445 15.116655826568604 26.94491481781006 15.623445510864258 26.439085960388184 C 16.184014081954956 25.87781047821045 16.70454204082489 25.443964958190918 17.337324619293213 24.963913917541504 C 17.337324619293213 24.963913917541504 17.335445880889893 24.96160364151001 17.335445880889893 24.96160364151001 C 17.352941632270813 24.948228359222412 17.37055480480194 24.93728494644165 17.38617181777954 24.9217209815979 C 17.582499980926514 24.72546911239624 17.582499980926514 24.407258987426758 17.38617181777954 24.21185827255249 C 17.203581929206848 24.028860092163086 16.913551688194275 24.02107810974121 16.717223525047302 24.179028034210205 Z M 20.3774756193161 9.714632987976074 C 19.85495150089264 10.236876964569092 19.287572503089905 10.708294868469238 18.700701594352722 11.156974792480469 C 18.65866482257843 11.181171894073486 18.617684841156006 11.206220149993896 18.58245849609375 11.24294137954712 C 18.385308384895325 11.440773963928223 18.385308384895325 11.760564804077148 18.58245849609375 11.95827579498291 C 18.774794340133667 12.151366233825684 19.083494544029236 12.155257225036621 19.28264081478119 11.972380638122559 C 19.28264081478119 11.972380638122559 19.285693764686584 11.973961353302002 19.285693764686584 11.973961353302002 C 19.911548495292664 11.493180751800537 20.519907474517822 10.985041618347168 21.084468364715576 10.421334266662598 C 21.627423763275146 9.877933025360107 22.1185964345932 9.308024406433105 22.545304894447327 8.723281383514404 C 22.545304894447327 8.723281383514404 23.228930830955505 7.786768436431885 23.228930830955505 7.786768436431885 C 23.228930830955505 7.786768436431885 23.227052092552185 7.784458160400391 23.227052092552185 7.784458160400391 C 23.396960496902466 7.585044860839844 23.390032649040222 7.288721561431885 23.20168912410736 7.100373268127441 C 23.005360960960388 6.9033918380737305 22.685975432395935 6.9033918380737305 22.488707900047302 7.100373268127441 C 22.452542185783386 7.137824058532715 22.42530047893524 7.180868148803711 22.401816248893738 7.223912239074707 C 22.401816248893738 7.223912239074707 21.736742854118347 8.133796215057373 21.736742854118347 8.133796215057373 C 21.34126842021942 8.677197456359863 20.883208513259888 9.2088041305542 20.3774756193161 9.714632987976074 Z"/></g></svg>