<svg version="1.1" xmlns="http://www.w3.org/2000/svg" xmlns:xlink="http://www.w3.org/1999/xlink" width="30" height="29"><defs/><g><path fill="rgb(13,13,13)" stroke="none" paint-order="stroke fill markers" fill-rule="evenodd" d=" M 28.498496651649475 11.146868228912354 C 28.26353693008423 10.468376636505127 27.659287691116333 9.97191047668457 26.932098507881165 9.863205909729004 C 26.932098507881165 9.863205909729004 19.854890942573547 8.810935974121094 19.854890942573547 8.810935974121094 C 19.854890942573547 8.810935974121094 16.77775228023529 2.4238739013671875 16.77775228023529 2.4238739013671875 C 16.454844117164612 1.753164291381836 15.761824488639832 1.323939323425293 14.99976122379303 1.323939323425293 C 14.23851990699768 1.323939323425293 13.5455002784729 1.753164291381836 13.221652746200562 2.4238739013671875 C 13.221652746200562 2.4238739013671875 10.145453453063965 8.810935974121094 10.145453453063965 8.810935974121094 C 10.145453453063965 8.810935974121094 3.0673065185546875 9.863205909729004 3.0673065185546875 9.863205909729004 C 2.3402347564697266 9.97191047668457 1.7358680963516235 10.468376636505127 1.501847743988037 11.146868228912354 C 1.2677099704742432 11.827791690826416 1.4445462226867676 12.577537059783936 1.958381175994873 13.089567184448242 C 1.958381175994873 13.089567184448242 7.144755959510803 18.26884126663208 7.144755959510803 18.26884126663208 C 7.144755959510803 18.26884126663208 5.942011117935181 25.45185422897339 5.942011117935181 25.45185422897339 C 5.81989312171936 26.174970626831055 6.1336424350738525 26.901248455047607 6.747989892959595 27.32500171661377 C 7.085810542106628 27.55639410018921 7.482576608657837 27.674461364746094 7.879342675209045 27.674461364746094 C 8.205538630485535 27.674461364746094 8.532556533813477 27.593844890594482 8.829749464988708 27.43601655960083 C 8.829749464988708 27.43601655960083 14.99976122379303 24.11420440673828 14.99976122379303 24.11420440673828 C 14.99976122379303 24.11420440673828 21.170594930648804 27.43601655960083 21.170594930648804 27.43601655960083 C 21.467670440673828 27.593844890594482 21.79468834400177 27.674461364746094 22.120179772377014 27.674461364746094 C 22.517767786979675 27.674461364746094 22.91371190547943 27.55639410018921 23.252354502677917 27.32500171661377 C 23.866584539413452 26.901248455047607 24.17951190471649 26.174970626831055 24.05833327770233 25.45185422897339 C 24.05833327770233 25.45185422897339 22.854766488075256 18.26884126663208 22.854766488075256 18.26884126663208 C 22.854766488075256 18.26884126663208 28.04196321964264 13.089567184448242 28.04196321964264 13.089567184448242 C 28.555680751800537 12.577537059783936 28.73169505596161 11.827791690826416 28.498496651649475 11.146868228912354 Z M 21.449470162391663 16.932772159576416 C 21.01454222202301 17.36746883392334 20.816922426223755 17.97726011276245 20.917317509651184 18.5761079788208 C 20.917317509651184 18.5761079788208 22.120179772377014 25.76058006286621 22.120179772377014 25.76058006286621 C 22.120179772377014 25.76058006286621 15.950168013572693 22.439619064331055 15.950168013572693 22.439619064331055 C 15.653797030448914 22.28093957901001 15.326779127120972 22.20044469833374 14.99976122379303 22.20044469833374 C 14.673447847366333 22.20044469833374 14.346429944038391 22.28093957901001 14.050058960914612 22.439619064331055 C 14.050058960914612 22.439619064331055 7.879342675209045 25.76058006286621 7.879342675209045 25.76058006286621 C 7.879342675209045 25.76058006286621 9.083026885986328 18.5761079788208 9.083026885986328 18.5761079788208 C 9.18330454826355 17.97726011276245 8.985802173614502 17.36746883392334 8.55087423324585 16.932772159576416 C 8.55087423324585 16.932772159576416 3.3644994497299194 11.75434923171997 3.3644994497299194 11.75434923171997 C 3.3644994497299194 11.75434923171997 10.441824436187744 10.70134973526001 10.441824436187744 10.70134973526001 C 11.088345289230347 10.604318141937256 11.64539122581482 10.200141429901123 11.923444509506226 9.623180389404297 C 11.923444509506226 9.623180389404297 14.99976122379303 3.237699031829834 14.99976122379303 3.237699031829834 C 14.99976122379303 3.237699031829834 18.07678246498108 9.623180389404297 18.07678246498108 9.623180389404297 C 18.354953169822693 10.200141429901123 18.911059737205505 10.604318141937256 19.557698011398315 10.70134973526001 C 19.557698011398315 10.70134973526001 26.635844945907593 11.75434923171997 26.635844945907593 11.75434923171997 C 26.635844945907593 11.75434923171997 21.449470162391663 16.932772159576416 21.449470162391663 16.932772159576416 Z"/></g></svg>