<svg version="1.1" xmlns="http://www.w3.org/2000/svg" xmlns:xlink="http://www.w3.org/1999/xlink" width="31" height="35"><defs/><g><path fill="rgb(255,255,255)" stroke="none" paint-order="stroke fill markers" fill-rule="evenodd" d=" M 28.112302780151367 7.021551609039307 C 28.112302780151367 7.021551609039307 26.89746356010437 3.365114212036133 26.89746356010437 3.365114212036133 C 26.624929070472717 2.549708366394043 25.86122190952301 1.9986467361450195 24.999937772750854 1.9986467361450195 C 24.999937772750854 1.9986467361450195 6.9999799728393555 1.9986467361450195 6.9999799728393555 1.9986467361450195 C 6.1386958360672 1.9986467361450195 5.374988675117493 2.549708366394043 5.10245418548584 3.365114212036133 C 5.10245418548584 3.365114212036133 3.8778690099716187 7.023010730743408 3.8778690099716187 7.023010730743408 C 2.83399498462677 7.0911030769348145 1.9999525547027588 7.937758445739746 1.9999525547027588 8.998661518096924 C 1.9999525547027588 8.998661518096924 1.9999525547027588 11.999102115631104 1.9999525547027588 11.999102115631104 C 1.9999525547027588 13.102927684783936 2.8954062461853027 13.998828411102295 3.999987006187439 13.998828411102295 C 3.999987006187439 13.998828411102295 5.0341150760650635 13.998828411102295 5.0341150760650635 13.998828411102295 C 5.0341150760650635 14.073851585388184 5.003820419311523 14.144254207611084 5.012627005577087 14.219277381896973 C 5.012627005577087 14.219277381896973 7.012661457061768 32.21961069107056 7.012661457061768 32.21961069107056 C 7.124916076660156 33.23199796676636 7.9804465770721436 33.99900960922241 8.999897003173828 33.99900960922241 C 8.999897003173828 33.99900960922241 22.999903321266174 33.99900960922241 22.999903321266174 33.99900960922241 C 24.019471168518066 33.99900960922241 24.875001668930054 33.23199796676636 24.987256288528442 32.21961069107056 C 24.987256288528442 32.21961069107056 26.987290740013123 14.219277381896973 26.987290740013123 14.219277381896973 C 26.996097326278687 14.144254207611084 26.965802669525146 14.073851585388184 26.965802669525146 13.998828411102295 C 26.965802669525146 13.998828411102295 27.99993073940277 13.998828411102295 27.99993073940277 13.998828411102295 C 29.104511499404907 13.998828411102295 29.99996519088745 13.102927684783936 29.99996519088745 11.999102115631104 C 29.99996519088745 11.999102115631104 29.99996519088745 8.998661518096924 29.99996519088745 8.998661518096924 C 29.99996519088745 7.933867454528809 29.16110849380493 7.083199501037598 28.112302780151367 7.021551609039307 Z M 6.9999799728393555 3.998373031616211 C 6.9999799728393555 3.998373031616211 24.999937772750854 3.998373031616211 24.999937772750854 3.998373031616211 C 24.999937772750854 3.998373031616211 25.99989628791809 6.998813629150391 25.99989628791809 6.998813629150391 C 25.99989628791809 6.998813629150391 5.999904036521912 6.998813629150391 5.999904036521912 6.998813629150391 C 5.999904036521912 6.998813629150391 6.9999799728393555 3.998373031616211 6.9999799728393555 3.998373031616211 Z M 8.999897003173828 31.99916172027588 C 8.999897003173828 31.99916172027588 8.666890621185303 28.999572277069092 8.666890621185303 28.999572277069092 C 8.666890621185303 28.999572277069092 23.3329097032547 28.999572277069092 23.3329097032547 28.999572277069092 C 23.3329097032547 28.999572277069092 22.999903321266174 31.99916172027588 22.999903321266174 31.99916172027588 C 22.999903321266174 31.99916172027588 8.999897003173828 31.99916172027588 8.999897003173828 31.99916172027588 Z M 23.444224953651428 27.998857975006104 C 23.444224953651428 27.998857975006104 8.555692791938782 27.998857975006104 8.555692791938782 27.998857975006104 C 8.555692791938782 27.998857975006104 7.444301605224609 17.99913215637207 7.444301605224609 17.99913215637207 C 7.444301605224609 17.99913215637207 24.5556161403656 17.99913215637207 24.5556161403656 17.99913215637207 C 24.5556161403656 17.99913215637207 23.444224953651428 27.998857975006104 23.444224953651428 27.998857975006104 Z M 24.66693139076233 16.998539447784424 C 24.66693139076233 16.998539447784424 7.332986354827881 16.998539447784424 7.332986354827881 16.998539447784424 C 7.332986354827881 16.998539447784424 6.9999799728393555 13.998828411102295 6.9999799728393555 13.998828411102295 C 6.9999799728393555 13.998828411102295 24.999937772750854 13.998828411102295 24.999937772750854 13.998828411102295 C 24.999937772750854 13.998828411102295 24.66693139076233 16.998539447784424 24.66693139076233 16.998539447784424 Z M 27.99993073940277 11.999102115631104 C 27.99993073940277 11.999102115631104 3.999987006187439 11.999102115631104 3.999987006187439 11.999102115631104 C 3.999987006187439 11.999102115631104 3.999987006187439 8.998661518096924 3.999987006187439 8.998661518096924 C 3.999987006187439 8.998661518096924 27.99993073940277 8.998661518096924 27.99993073940277 8.998661518096924 C 27.99993073940277 8.998661518096924 27.99993073940277 11.999102115631104 27.99993073940277 11.999102115631104 Z"/></g></svg>