<svg version="1.1" xmlns="http://www.w3.org/2000/svg" xmlns:xlink="http://www.w3.org/1999/xlink" width="35" height="31"><defs/><g><path fill="rgb(243,156,18)" stroke="none" paint-order="stroke fill markers" fill-rule="evenodd" d=" M 33.92371714115143 18.453982830047607 C 33.92371714115143 18.453982830047607 29.921886920928955 3.4486184120178223 29.921886920928955 3.4486184120178223 C 29.679647088050842 2.595640182495117 28.889520168304443 1.998373031616211 27.999937534332275 1.998373031616211 C 27.999937534332275 1.998373031616211 17.999882698059082 1.998373031616211 17.999882698059082 1.998373031616211 C 17.999882698059082 1.998373031616211 7.999945282936096 1.998373031616211 7.999945282936096 1.998373031616211 C 7.110362648963928 1.998373031616211 6.320235729217529 2.595640182495117 6.0779958963394165 3.4486184120178223 C 6.0779958963394165 3.4486184120178223 2.0761656761169434 18.453982830047607 2.0761656761169434 18.453982830047607 C 2.0253223180770874 18.63685941696167 1.9999593496322632 18.820587158203125 1.9999593496322632 18.9988431930542 C 1.9999593496322632 18.9988431930542 1.9999593496322632 25.998857975006104 1.9999593496322632 25.998857975006104 C 1.9999593496322632 28.20808982849121 3.7909841537475586 29.99916172027588 5.999910831451416 29.99916172027588 C 5.999910831451416 29.99916172027588 29.999971985816956 29.99916172027588 29.999971985816956 29.99916172027588 C 32.20889866352081 29.99916172027588 33.99992346763611 28.20808982849121 33.99992346763611 25.998857975006104 C 33.99992346763611 25.998857975006104 33.99992346763611 18.9988431930542 33.99992346763611 18.9988431930542 C 33.99992346763611 18.820587158203125 33.974560499191284 18.63685941696167 33.92371714115143 18.453982830047607 Z M 32.000006437301636 25.998857975006104 C 32.000006437301636 27.101102828979492 31.102439165115356 27.998584270477295 29.999971985816956 27.998584270477295 C 29.999971985816956 27.998584270477295 5.999910831451416 27.998584270477295 5.999910831451416 27.998584270477295 C 4.897443652153015 27.998584270477295 3.9999938011169434 27.101102828979492 3.9999938011169434 25.998857975006104 C 3.9999938011169434 25.998857975006104 3.9999938011169434 18.9988431930542 3.9999938011169434 18.9988431930542 C 3.9999938011169434 18.9988431930542 8.000884652137756 3.9973697662353516 8.000884652137756 3.9973697662353516 C 8.000884652137756 3.9973697662353516 27.998998165130615 3.9973697662353516 27.998998165130615 3.9973697662353516 C 27.998998165130615 3.9973697662353516 32.000006437301636 18.9988431930542 32.000006437301636 18.9988431930542 C 32.000006437301636 18.9988431930542 32.000006437301636 25.998857975006104 32.000006437301636 25.998857975006104 Z M 25.74216365814209 5.999527931213379 C 25.74216365814209 5.999527931213379 10.257719159126282 5.999527931213379 10.257719159126282 5.999527931213379 C 9.804708361625671 5.999527931213379 9.408177137374878 6.30278205871582 9.290990829467773 6.742950439453125 C 9.290990829467773 6.742950439453125 5.845619440078735 18.7416729927063 5.845619440078735 18.7416729927063 C 5.766595005989075 19.041887283325195 5.830002427101135 19.36155652999878 6.019402742385864 19.60863447189331 C 6.208920478820801 19.8541316986084 6.5020036697387695 19.997976779937744 6.812465190887451 19.997976779937744 C 6.812465190887451 19.997976779937744 9.718756079673767 19.997976779937744 9.718756079673767 19.997976779937744 C 9.718756079673767 19.997976779937744 10.859385132789612 19.997976779937744 10.859385132789612 19.997976779937744 C 10.859385132789612 19.997976779937744 11.380852460861206 19.997976779937744 11.380852460861206 19.997976779937744 C 11.380852460861206 19.997976779937744 12.828068137168884 22.893603801727295 12.828068137168884 22.893603801727295 C 13.166945576667786 23.571487426757812 13.859378099441528 23.99828052520752 14.61721420288086 23.99828052520752 C 14.61721420288086 23.99828052520752 21.38278603553772 23.99828052520752 21.38278603553772 23.99828052520752 C 22.140504717826843 23.99828052520752 22.832937240600586 23.571487426757812 23.171814680099487 22.893603801727295 C 23.171814680099487 22.893603801727295 24.619030356407166 19.997976779937744 24.619030356407166 19.997976779937744 C 24.619030356407166 19.997976779937744 25.14049768447876 19.997976779937744 25.14049768447876 19.997976779937744 C 25.14049768447876 19.997976779937744 26.281244158744812 19.997976779937744 26.281244158744812 19.997976779937744 C 26.281244158744812 19.997976779937744 29.18741762638092 19.997976779937744 29.18741762638092 19.997976779937744 C 29.49799656867981 19.997976779937744 29.79096233844757 19.8541316986084 29.980480074882507 19.60863447189331 C 30.169880390167236 19.36155652999878 30.233405232429504 19.041887283325195 30.154263377189636 18.7416729927063 C 30.154263377189636 18.7416729927063 26.708891987800598 6.742950439453125 26.708891987800598 6.742950439453125 C 26.591705679893494 6.30278205871582 26.195291876792908 5.999527931213379 25.74216365814209 5.999527931213379 Z M 26.281244158744812 17.998980045318604 C 26.281244158744812 17.998980045318604 24.619030356407166 17.998980045318604 24.619030356407166 17.998980045318604 C 23.857319355010986 17.998980045318604 23.171814680099487 18.421152591705322 22.830001711845398 19.103656768798828 C 22.830001711845398 19.103656768798828 21.38278603553772 21.998554229736328 21.38278603553772 21.998554229736328 C 21.38278603553772 21.998554229736328 14.61721420288086 21.998554229736328 14.61721420288086 21.998554229736328 C 14.61721420288086 21.998554229736328 13.169881105422974 19.103656768798828 13.169881105422974 19.103656768798828 C 12.828068137168884 18.421152591705322 12.142563462257385 17.998980045318604 11.380852460861206 17.998980045318604 C 11.380852460861206 17.998980045318604 9.718756079673767 17.998980045318604 9.718756079673767 17.998980045318604 C 9.718756079673767 17.998980045318604 7.333932518959045 17.998980045318604 7.333932518959045 17.998980045318604 C 7.333932518959045 17.998980045318604 10.257719159126282 6.998661518096924 10.257719159126282 6.998661518096924 C 10.257719159126282 6.998661518096924 25.74216365814209 6.998661518096924 25.74216365814209 6.998661518096924 C 25.74216365814209 6.998661518096924 28.665950298309326 17.998980045318604 28.665950298309326 17.998980045318604 C 28.665950298309326 17.998980045318604 26.281244158744812 17.998980045318604 26.281244158744812 17.998980045318604 Z"/></g></svg>