<svg version="1.1" xmlns="http://www.w3.org/2000/svg" xmlns:xlink="http://www.w3.org/1999/xlink" width="31" height="31"><defs/><g><path fill="rgb(13,13,13)" stroke="none" paint-order="stroke fill markers" fill-rule="evenodd" d=" M 15.49997615814209 1.5491456985473633 C 7.795504808425903 1.5491456985473633 1.549991250038147 7.79479455947876 1.549991250038147 15.499200344085693 C 1.549991250038147 23.203606128692627 7.795504808425903 29.44913339614868 15.49997615814209 29.44913339614868 C 23.204447507858276 29.44913339614868 29.449961066246033 23.203606128692627 29.449961066246033 15.499200344085693 C 29.449961066246033 7.79479455947876 23.204447507858276 1.5491456985473633 15.49997615814209 1.5491456985473633 Z M 27.6271151304245 15.048818111419678 C 27.6271151304245 15.048818111419678 22.23055648803711 15.048818111419678 22.23055648803711 15.048818111419678 C 22.18135702610016 13.05614423751831 21.82721483707428 11.150896072387695 21.197954893112183 9.408339977264404 C 22.411737322807312 8.900930404663086 23.534870624542236 8.227059364318848 24.559722423553467 7.431230068206787 C 26.380807042121887 9.474000453948975 27.519909620285034 12.128142833709717 27.6271151304245 15.048818111419678 Z M 15.002580165863037 27.623650550842285 C 13.506634712219238 26.3782901763916 12.252341985702515 24.76085376739502 11.333991169929504 22.88296413421631 C 12.511725306510925 22.514779090881348 13.760616660118103 22.313055515289307 15.049900889396667 22.272443294525146 C 15.049900889396667 22.272443294525146 15.049900889396667 27.62608242034912 15.049900889396667 27.62608242034912 C 15.03416645526886 27.62523126602173 15.018314599990845 27.624501705169678 15.002580165863037 27.623650550842285 Z M 15.99655020236969 3.3746285438537598 C 17.693755507469177 4.788031101226807 19.078855395317078 6.680755138397217 20.015758752822876 8.88767671585083 C 18.733519792556763 9.326993942260742 17.3693208694458 9.581124305725098 15.949934005737305 9.626478672027588 C 15.949934005737305 9.626478672027588 15.949934005737305 3.3723182678222656 15.949934005737305 3.3723182678222656 C 15.96578586101532 3.3730478286743164 15.980698347091675 3.373898983001709 15.99655020236969 3.3746285438537598 Z M 17.495078921318054 3.527836322784424 C 19.978888511657715 3.940646171569824 22.208598732948303 5.100769519805908 23.94279170036316 6.780826568603516 C 23.000604391098022 7.502362251281738 21.970468640327454 8.115314960479736 20.85860776901245 8.578950881958008 C 20.038655877113342 6.63698148727417 18.88992476463318 4.920932769775391 17.495078921318054 3.527836322784424 Z M 15.049900889396667 3.3723182678222656 C 15.049900889396667 3.3723182678222656 15.049900889396667 9.626478672027588 15.049900889396667 9.626478672027588 C 13.630514025688171 9.581124305725098 12.266432523727417 9.326993942260742 10.984076142311096 8.88767671585083 C 11.920979499816895 6.680755138397217 13.306196808815002 4.788031101226807 15.003284692764282 3.3746285438537598 C 15.019136548042297 3.373898983001709 15.03416645526886 3.3730478286743164 15.049900889396667 3.3723182678222656 Z M 10.141227126121521 8.578950881958008 C 9.029366254806519 8.115314960479736 7.999347925186157 7.502362251281738 7.0571606159210205 6.780826568603516 C 8.791236162185669 5.100769519805908 11.021063804626465 3.940646171569824 13.504873394966125 3.527836322784424 C 12.110027551651001 4.920932769775391 10.961296439170837 6.63698148727417 10.141227126121521 8.578950881958008 Z M 10.644846439361572 9.717187404632568 C 12.032647013664246 10.199548721313477 13.510979294776917 10.479335308074951 15.049900889396667 10.526270389556885 C 15.049900889396667 10.526270389556885 15.049900889396667 15.048818111419678 15.049900889396667 15.048818111419678 C 15.049900889396667 15.048818111419678 9.6693115234375 15.048818111419678 9.6693115234375 15.048818111419678 C 9.71757161617279 13.164727210998535 10.051634788513184 11.363563060760498 10.644846439361572 9.717187404632568 Z M 15.049900889396667 15.949460983276367 C 15.049900889396667 15.949460983276367 15.049900889396667 21.371800422668457 15.049900889396667 21.371800422668457 C 13.630514025688171 21.414844512939453 12.258565306663513 21.647817611694336 10.964819073677063 22.06366729736328 C 10.185142636299133 20.208515644073486 9.725556254386902 18.14081859588623 9.6693115234375 15.949460983276367 C 9.6693115234375 15.949460983276367 15.049900889396667 15.949460983276367 15.049900889396667 15.949460983276367 Z M 13.504873394966125 27.47044277191162 C 11.279390335083008 27.100677013397217 9.257985234260559 26.131333827972412 7.614441394805908 24.724132537841797 C 8.501205921173096 24.109599113464355 9.459245085716248 23.589787006378174 10.483157515525818 23.193392276763916 C 11.268000483512878 24.82104253768921 12.295552968978882 26.26581621170044 13.504873394966125 27.47044277191162 Z M 15.949934005737305 27.62608242034912 C 15.949934005737305 27.62608242034912 15.949934005737305 22.272443294525146 15.949934005737305 22.272443294525146 C 17.239335656166077 22.313055515289307 18.488227009773254 22.514779090881348 19.665961146354675 22.88296413421631 C 18.747492909431458 24.76085376739502 17.49331760406494 26.3782901763916 15.997372150421143 27.623650550842285 C 15.981637716293335 27.624501705169678 15.96578586101532 27.62523126602173 15.949934005737305 27.62608242034912 Z M 20.516677379608154 23.193392276763916 C 21.540707230567932 23.589787006378174 22.498746395111084 24.109599113464355 23.38551092147827 24.724132537841797 C 21.741849660873413 26.131333827972412 19.720561981201172 27.100677013397217 17.495078921318054 27.47044277191162 C 18.704399347305298 26.26581621170044 19.731834411621094 24.82104253768921 20.516677379608154 23.193392276763916 Z M 20.035133242607117 22.06366729736328 C 18.741387009620667 21.647817611694336 17.3693208694458 21.414844512939453 15.949934005737305 21.371800422668457 C 15.949934005737305 21.371800422668457 15.949934005737305 15.949460983276367 15.949934005737305 15.949460983276367 C 15.949934005737305 15.949460983276367 21.33064079284668 15.949460983276367 21.33064079284668 15.949460983276367 C 21.274396061897278 18.14081859588623 20.81469225883484 20.208515644073486 20.035133242607117 22.06366729736328 Z M 15.949934005737305 15.048818111419678 C 15.949934005737305 15.048818111419678 15.949934005737305 10.526270389556885 15.949934005737305 10.526270389556885 C 17.488973021507263 10.479335308074951 18.967187881469727 10.199548721313477 20.3549884557724 9.717187404632568 C 20.948317527770996 11.363563060760498 21.28226327896118 13.164727210998535 21.33064079284668 15.048818111419678 C 21.33064079284668 15.048818111419678 15.949934005737305 15.048818111419678 15.949934005737305 15.048818111419678 Z M 6.440229892730713 7.431230068206787 C 7.464964270591736 8.227059364318848 8.588214993476868 8.900930404663086 9.801997423171997 9.408339977264404 C 9.172620058059692 11.150896072387695 8.818477869033813 13.05614423751831 8.769278407096863 15.048818111419678 C 8.769278407096863 15.048818111419678 3.37283718585968 15.048818111419678 3.37283718585968 15.048818111419678 C 3.4800426959991455 12.128142833709717 4.6191452741622925 9.474000453948975 6.440229892730713 7.431230068206787 Z M 3.37283718585968 15.949460983276367 C 3.37283718585968 15.949460983276367 8.769278407096863 15.949460983276367 8.769278407096863 15.949460983276367 C 8.825523138046265 18.248672008514404 9.305423378944397 20.419601917266846 10.12185263633728 22.372514724731445 C 8.98192811012268 22.816574096679688 7.918562173843384 23.409950256347656 6.937625885009766 24.109599113464355 C 4.8239277601242065 22.00749111175537 3.4906105995178223 19.13204860687256 3.37283718585968 15.949460983276367 Z M 24.062326431274414 24.109599113464355 C 23.081390142440796 23.409950256347656 22.01790678501129 22.816574096679688 20.877982258796692 22.372514724731445 C 21.694528937339783 20.419601917266846 22.174311757087708 18.248672008514404 22.23055648803711 15.949460983276367 C 22.23055648803711 15.949460983276367 27.6271151304245 15.949460983276367 27.6271151304245 15.949460983276367 C 27.509341716766357 19.13204860687256 26.176024556159973 22.00749111175537 24.062326431274414 24.109599113464355 Z"/></g></svg>