<svg aria-hidden="true" style="position: absolute; width: 0; height: 0; overflow: hidden;" version="1.1" xmlns="http://www.w3.org/2000/svg" xmlns:xlink="http://www.w3.org/1999/xlink">
<defs>
<symbol id="icon-banknote" viewBox="0 0 32 32">
<title>icon-banknote</title>
<path d="M29.702 11.187c0 0-8.889-8.889-8.889-8.889-0.441-0.441-1.080-0.618-1.685-0.469-0.32 0.079-0.604 0.243-0.83 0.469-0.201 0.201-0.354 0.452-0.441 0.732-0.404 1.305-1.1 2.441-2.129 3.47-1.376 1.375-3.168 2.416-5.064 3.517-2.012 1.167-4.091 2.375-5.795 4.079-1.448 1.45-2.434 3.062-3.011 4.934-0.194 0.632-0.025 1.316 0.441 1.783 0 0 8.889 8.889 8.889 8.889 0.441 0.441 1.080 0.618 1.685 0.469 0.319-0.080 0.604-0.243 0.83-0.469 0.201-0.202 0.354-0.452 0.441-0.732 0.404-1.306 1.1-2.441 2.13-3.47 1.375-1.375 3.167-2.416 5.064-3.516 2.011-1.168 4.090-2.377 5.794-4.079 1.448-1.448 2.434-3.063 3.011-4.935 0.194-0.63 0.025-1.315-0.441-1.781zM12.445 28.444c-2.944-2.944-5.945-5.946-8.89-8.889 2.526-8.179 13.475-7.821 16-16 2.945 2.943 5.945 5.945 8.89 8.889-2.526 8.177-13.475 7.822-16 16zM19.165 15.021c-0.29-0.243-0.582-0.408-0.875-0.489-0.292-0.081-0.583-0.115-0.878-0.094-0.292 0.022-0.59 0.089-0.889 0.204-0.299 0.116-0.599 0.243-0.901 0.388-0.477-0.549-0.955-1.090-1.432-1.593 0.215-0.195 0.424-0.294 0.625-0.301 0.201-0.008 0.396 0.013 0.58 0.060 0.187 0.046 0.359 0.086 0.517 0.118 0.16 0.031 0.299-0.003 0.42-0.106 0.128-0.111 0.2-0.255 0.21-0.429 0.009-0.175-0.057-0.345-0.203-0.511-0.188-0.215-0.413-0.346-0.684-0.394-0.267-0.047-0.542-0.044-0.826 0.019-0.281 0.065-0.549 0.17-0.802 0.32s-0.457 0.302-0.608 0.452c-0.058-0.056-0.115-0.111-0.174-0.163-0.064-0.060-0.144-0.090-0.24-0.089-0.097 0-0.177 0.042-0.243 0.118-0.064 0.074-0.094 0.161-0.082 0.253 0.009 0.097 0.047 0.169 0.113 0.225 0.058 0.049 0.116 0.097 0.174 0.147-0.228 0.274-0.415 0.578-0.562 0.898-0.149 0.321-0.238 0.639-0.271 0.948-0.035 0.311-0.002 0.596 0.094 0.86 0.095 0.266 0.271 0.491 0.528 0.705 0.418 0.347 0.912 0.494 1.483 0.461 0.569-0.034 1.184-0.205 1.844-0.559 0.525 0.606 1.051 1.208 1.576 1.768-0.222 0.187-0.417 0.295-0.589 0.329-0.172 0.036-0.325 0.033-0.464-0.008-0.139-0.044-0.267-0.106-0.385-0.186s-0.234-0.151-0.351-0.209c-0.115-0.057-0.233-0.088-0.354-0.090s-0.25 0.057-0.392 0.179c-0.146 0.126-0.219 0.274-0.219 0.441 0 0.165 0.076 0.334 0.226 0.503 0.151 0.17 0.347 0.312 0.585 0.425s0.505 0.184 0.8 0.203c0.295 0.021 0.606-0.024 0.934-0.145 0.33-0.12 0.656-0.337 0.977-0.66 0.155 0.15 0.312 0.295 0.467 0.434 0.066 0.057 0.146 0.085 0.243 0.078 0.094-0.003 0.175-0.047 0.24-0.125 0.066-0.080 0.094-0.168 0.083-0.26-0.009-0.094-0.047-0.165-0.111-0.217-0.156-0.124-0.313-0.256-0.469-0.395 0.266-0.327 0.479-0.671 0.637-1.010 0.158-0.343 0.252-0.672 0.283-0.978 0.031-0.307-0.005-0.585-0.106-0.837-0.099-0.255-0.276-0.474-0.53-0.684zM14.197 15.624c-0.252 0.010-0.471-0.072-0.663-0.258-0.082-0.078-0.139-0.173-0.174-0.286-0.036-0.113-0.049-0.236-0.035-0.372 0.012-0.133 0.052-0.272 0.122-0.413 0.066-0.141 0.163-0.281 0.288-0.416 0.45 0.447 0.9 0.939 1.351 1.447-0.34 0.188-0.637 0.288-0.889 0.298zM18.389 17.404c-0.080 0.148-0.172 0.28-0.279 0.395-0.497-0.504-0.996-1.056-1.493-1.624 0.127-0.057 0.26-0.116 0.404-0.177s0.288-0.101 0.432-0.125c0.148-0.023 0.293-0.016 0.439 0.019 0.144 0.035 0.281 0.115 0.408 0.238 0.125 0.124 0.205 0.255 0.236 0.395 0.035 0.142 0.036 0.286 0.012 0.434-0.026 0.147-0.078 0.295-0.16 0.444zM14.86 21.492c0 0-0.002 0-0.002 0-0.555 0.427-1.098 0.877-1.6 1.38-0.483 0.483-0.919 0.991-1.299 1.511 0 0-0.608 0.829-0.608 0.829s0.002 0.002 0.002 0.002c-0.111 0.174-0.092 0.407 0.059 0.557 0.174 0.174 0.457 0.174 0.631 0 0.027-0.027 0.048-0.057 0.066-0.088 0 0 0.568-0.778 0.568-0.778 0.352-0.481 0.76-0.954 1.21-1.404 0.498-0.499 0.961-0.885 1.523-1.311 0 0-0.002-0.002-0.002-0.002 0.016-0.012 0.031-0.022 0.045-0.035 0.175-0.174 0.175-0.457 0-0.631-0.162-0.163-0.42-0.17-0.595-0.029zM18.113 8.635c-0.464 0.464-0.969 0.883-1.49 1.282-0.037 0.021-0.074 0.044-0.105 0.076-0.175 0.176-0.175 0.46 0 0.636 0.171 0.172 0.445 0.175 0.622 0.013 0 0 0.003 0.001 0.003 0.001 0.556-0.427 1.097-0.879 1.599-1.38 0.483-0.483 0.919-0.99 1.299-1.509 0 0 0.608-0.832 0.608-0.832s-0.002-0.002-0.002-0.002c0.151-0.177 0.145-0.441-0.023-0.608-0.174-0.175-0.458-0.175-0.634 0-0.032 0.033-0.056 0.072-0.077 0.11 0 0-0.591 0.809-0.591 0.809-0.352 0.483-0.759 0.956-1.208 1.405z"></path>
</symbol>
<symbol id="icon-cup" viewBox="0 0 32 32">
<title>icon-cup</title>
<path d="M27.531 6.42c0 0-1.111-3.343-1.111-3.343-0.249-0.745-0.947-1.249-1.735-1.249 0 0-16.457 0-16.457 0-0.787 0-1.486 0.504-1.735 1.249 0 0-1.12 3.344-1.12 3.344-0.954 0.062-1.717 0.836-1.717 1.806 0 0 0 2.743 0 2.743 0 1.009 0.819 1.828 1.829 1.828 0 0 0.946 0 0.946 0 0 0.069-0.028 0.133-0.020 0.202 0 0 1.829 16.457 1.829 16.457 0.103 0.926 0.885 1.627 1.817 1.627 0 0 12.8 0 12.8 0 0.932 0 1.714-0.701 1.817-1.627 0 0 1.829-16.457 1.829-16.457 0.008-0.069-0.020-0.133-0.020-0.202 0 0 0.945 0 0.945 0 1.010 0 1.829-0.819 1.829-1.828 0 0 0-2.743 0-2.743 0-0.974-0.767-1.751-1.726-1.808zM8.229 3.656c0 0 16.457 0 16.457 0s0.914 2.743 0.914 2.743c0 0-18.286 0-18.286 0s0.914-2.743 0.914-2.743zM10.057 29.256c0 0-0.304-2.742-0.304-2.742s13.409 0 13.409 0c0 0-0.304 2.742-0.304 2.742s-12.8 0-12.8 0zM23.263 25.599c0 0-13.612 0-13.612 0s-1.016-9.143-1.016-9.143c0 0 15.645 0 15.645 0s-1.016 9.143-1.016 9.143zM24.381 15.542c0 0-15.848 0-15.848 0s-0.304-2.743-0.304-2.743c0 0 16.457 0 16.457 0s-0.304 2.743-0.304 2.743zM27.428 10.971c0 0-21.943 0-21.943 0s0-2.743 0-2.743c0 0 21.943 0 21.943 0s0 2.743 0 2.743z"></path>
</symbol>
<symbol id="icon-lab" viewBox="0 0 32 32">
<title>icon-lab</title>
<path d="M20.737 5.241c-0.432-0.432-1.006-0.67-1.616-0.67s-1.184 0.237-1.617 0.67c0 0-1.29 1.291-1.29 1.291-0.433 0.431-0.671 1.006-0.671 1.618 0 0.43 0.118 0.842 0.339 1.2 0 0-12.413 4.973-12.413 4.973-0.83 0.365-1.425 1.113-1.593 2.002-0.169 0.893 0.114 1.809 0.763 2.456 0 0 11.63 11.502 11.63 11.502 0.501 0.501 1.167 0.786 1.87 0.801 0.016 0.001 0.054 0.001 0.070 0.001 0.185 0 0.371-0.018 0.558-0.056 0.908-0.189 1.653-0.816 1.99-1.672 0 0 4.884-12.229 4.884-12.229 0.369 0.242 0.799 0.372 1.251 0.372 0.611 0 1.186-0.237 1.616-0.67 0 0 1.288-1.287 1.288-1.287 0.435-0.433 0.675-1.008 0.675-1.621s-0.24-1.189-0.67-1.616c0 0-7.063-7.064-7.063-7.064zM17.059 28.678c-0.113 0.287-0.363 0.497-0.664 0.56-0.070 0.014-0.14 0.021-0.209 0.019-0.232-0.005-0.456-0.099-0.624-0.267 0 0-11.637-11.508-11.637-11.508-0.214-0.214-0.308-0.52-0.252-0.816s0.255-0.547 0.532-0.668c0 0 5.684-2.278 5.684-2.278 3.83 1.274 7.661 0.047 11.492 4.135 0 0-4.323 10.824-4.323 10.824zM26.507 14.244c0 0-1.292 1.292-1.292 1.292-0.179 0.179-0.468 0.179-0.646 0 0 0-1.616-1.615-1.616-1.615s-1.31 3.281-1.31 3.281c0 0 0.11-0.277 0.11-0.277-2.752-2.748-5.55-3.094-8.073-3.404-0.811-0.099-1.597-0.203-2.37-0.37 0 0 7.764-3.11 7.764-3.11s-1.568-1.568-1.568-1.568c-0.179-0.179-0.179-0.468 0-0.646 0 0 1.292-1.294 1.292-1.294 0.179-0.179 0.468-0.179 0.646 0 0 0 7.063 7.063 7.063 7.063 0.18 0.179 0.18 0.468 0 0.647zM16.914 21.028c1.26 0 2.286-1.024 2.286-2.285s-1.025-2.286-2.286-2.286c-1.26 0-2.286 1.025-2.286 2.286s1.026 2.285 2.286 2.285zM16.914 17.371c0.758 0 1.371 0.614 1.371 1.372s-0.614 1.371-1.371 1.371c-0.758 0-1.371-0.614-1.371-1.371s0.614-1.372 1.371-1.372zM28.8 1.828c-1.26 0-2.286 1.025-2.286 2.285s1.025 2.286 2.286 2.286 2.286-1.025 2.286-2.286c0-1.26-1.025-2.285-2.286-2.285zM28.8 5.485c-0.758 0-1.371-0.615-1.371-1.372s0.614-1.371 1.371-1.371 1.371 0.613 1.371 1.371c0 0.757-0.614 1.372-1.371 1.372zM9.143 17.371c0 1.008 0.82 1.828 1.829 1.828s1.829-0.821 1.829-1.828c0-1.009-0.82-1.829-1.829-1.829s-1.829 0.821-1.829 1.829zM10.971 16.457c0.505 0 0.914 0.409 0.914 0.914s-0.409 0.914-0.914 0.914-0.914-0.41-0.914-0.914c0-0.505 0.409-0.914 0.914-0.914zM13.714 23.771c0.505 0 0.914-0.409 0.914-0.914s-0.409-0.914-0.914-0.914-0.914 0.408-0.914 0.914c0 0.505 0.409 0.914 0.914 0.914zM28.343 8.228c-0.505 0-0.914 0.41-0.914 0.914 0 0.506 0.409 0.914 0.914 0.914s0.914-0.408 0.914-0.914c0-0.505-0.409-0.914-0.914-0.914z"></path>
</symbol>
<symbol id="icon-like" viewBox="0 0 32 32">
<title>icon-like</title>
<path d="M28.493 11.402c-1.142-0.3-3.83-0.297-7.761-0.4 0.187-0.858 0.229-1.631 0.229-3.003 0-3.281-2.389-6.171-4.504-6.171-1.493 0-2.724 1.221-2.743 2.722-0.021 1.841-0.589 5.021-3.657 6.634-0.225 0.119-0.869 0.436-0.962 0.477 0 0 0.048 0.041 0.048 0.041-0.48-0.415-1.146-0.73-1.829-0.73 0 0-2.743 0-2.743 0-1.513 0-2.743 1.23-2.743 2.742 0 0 0 14.629 0 14.629 0 1.512 1.23 2.743 2.743 2.743 0 0 2.743 0 2.743 0 1.088 0 1.998-0.656 2.439-1.578 0.011 0.004 0.030 0.009 0.043 0.010 0.061 0.016 0.131 0.034 0.219 0.058 0.016 0.004 0.025 0.005 0.042 0.011 0.527 0.13 1.54 0.373 3.707 0.871 0.465 0.106 2.918 0.629 5.462 0.629 0 0 4.997 0 4.997 0 1.524 0 2.621-0.585 3.275-1.763 0.010-0.018 0.221-0.428 0.392-0.984 0.129-0.418 0.177-1.009 0.021-1.609 0.981-0.675 1.297-1.695 1.504-2.359 0.344-1.089 0.24-1.907 0.001-2.492 0.552-0.522 1.023-1.317 1.222-2.528 0.123-0.753-0.009-1.525-0.356-2.17 0.518-0.58 0.755-1.313 0.78-1.989 0 0 0.011-0.191 0.011-0.191 0.007-0.121 0.013-0.195 0.013-0.458 0-1.155-0.799-2.628-2.593-3.14zM8.229 28.342c0 0.505-0.409 0.914-0.914 0.914 0 0-2.743 0-2.743 0-0.505 0-0.914-0.409-0.914-0.914 0 0 0-14.629 0-14.629 0-0.506 0.409-0.915 0.914-0.915 0 0 2.743 0 2.743 0 0.505 0 0.914 0.409 0.914 0.915 0 0 0 14.629 0 14.629zM29.237 15.116c-0.019 0.452-0.208 1.339-1.808 1.339-1.371 0-1.829 0-1.829 0-0.253 0-0.457 0.204-0.457 0.457s0.204 0.457 0.457 0.457c0 0 0.4 0 1.771 0s1.552 1.138 1.463 1.686c-0.112 0.683-0.432 1.971-1.976 1.971s-2.172 0-2.172 0c-0.253 0-0.457 0.204-0.457 0.457s0.204 0.458 0.457 0.458c0 0 1.086 0 1.8 0 1.543 0 1.408 1.177 1.186 1.878-0.291 0.923-0.47 1.778-2.413 1.778-0.658 0-1.492 0-1.492 0-0.253 0-0.457 0.204-0.457 0.457 0 0.252 0.204 0.457 0.457 0.457 0 0 0.634 0 1.434 0 1 0 1.047 0.946 0.943 1.285-0.114 0.372-0.249 0.647-0.255 0.659-0.277 0.498-0.721 0.798-1.664 0.798 0 0-4.997 0-4.997 0-2.511 0-5.002-0.57-5.066-0.584-3.798-0.876-3.998-0.943-4.237-1.011 0 0-0.773-0.13-0.773-0.805 0 0-0.007-12.629-0.007-12.629 0-0.428 0.273-0.816 0.726-0.952 0.056-0.022 0.133-0.046 0.189-0.069 4.177-1.729 5.448-5.522 5.486-8.637 0.005-0.437 0.343-0.914 0.914-0.914 0.967 0 2.675 1.941 2.675 4.342 0 2.167-0.087 2.541-0.846 4.8 9.143 0 9.079 0.132 9.886 0.343 1 0.286 1.086 1.114 1.086 1.4 0 0.313-0.009 0.267-0.020 0.575zM5.943 25.599c-0.757 0-1.371 0.614-1.371 1.372s0.614 1.372 1.371 1.372c0.757 0 1.371-0.615 1.371-1.372s-0.614-1.372-1.371-1.372zM5.943 27.427c-0.252 0-0.457-0.206-0.457-0.457s0.205-0.457 0.457-0.457c0.252 0 0.457 0.205 0.457 0.457s-0.205 0.457-0.457 0.457z"></path>
</symbol>
<symbol id="icon-stack" viewBox="0 0 32 32">
<title>icon-stack</title>
<path d="M31.016 18.701c0 0-3.659-13.719-3.659-13.719-0.221-0.78-0.944-1.326-1.757-1.326 0 0-9.143 0-9.143 0s-9.143 0-9.143 0c-0.813 0-1.536 0.546-1.757 1.326 0 0-3.659 13.719-3.659 13.719-0.046 0.167-0.070 0.335-0.070 0.498 0 0 0 6.4 0 6.4 0 2.020 1.637 3.657 3.657 3.657 0 0 21.943 0 21.943 0 2.020 0 3.657-1.638 3.657-3.657 0 0 0-6.4 0-6.4 0-0.163-0.023-0.331-0.070-0.498zM29.257 25.599c0 1.008-0.821 1.828-1.829 1.828 0 0-21.943 0-21.943 0-1.008 0-1.829-0.821-1.829-1.828 0 0 0-6.4 0-6.4s3.658-13.716 3.658-13.716c0 0 18.284 0 18.284 0s3.658 13.716 3.658 13.716c0 0 0 6.4 0 6.4zM23.536 7.314c0 0-14.157 0-14.157 0-0.414 0-0.777 0.277-0.884 0.68 0 0-3.15 10.97-3.15 10.97-0.072 0.274-0.014 0.567 0.159 0.793 0.173 0.224 0.441 0.356 0.725 0.356 0 0 2.657 0 2.657 0s1.043 0 1.043 0c0 0 0.477 0 0.477 0s1.323 2.647 1.323 2.647c0.31 0.62 0.943 1.010 1.636 1.010 0 0 6.186 0 6.186 0 0.693 0 1.326-0.39 1.636-1.010 0 0 1.323-2.647 1.323-2.647s0.477 0 0.477 0c0 0 1.043 0 1.043 0s2.657 0 2.657 0c0.284 0 0.552-0.131 0.725-0.356 0.173-0.226 0.231-0.518 0.159-0.793 0 0-3.15-10.97-3.15-10.97-0.107-0.402-0.47-0.68-0.884-0.68zM24.029 18.285c0 0-1.52 0-1.52 0-0.696 0-1.323 0.386-1.636 1.010 0 0-1.323 2.647-1.323 2.647s-6.186 0-6.186 0c0 0-1.323-2.647-1.323-2.647-0.313-0.624-0.939-1.010-1.636-1.010 0 0-1.52 0-1.52 0s-2.18 0-2.18 0c0 0 2.673-10.057 2.673-10.057s14.157 0 14.157 0c0 0 2.673 10.057 2.673 10.057s-2.18 0-2.18 0z"></path>
</symbol>
<symbol id="icon-star" viewBox="0 0 32 32">
<title>icon-star</title>
<path d="M30.398 12.423c-0.251-0.724-0.895-1.253-1.671-1.369 0 0-7.549-1.122-7.549-1.122s-3.282-6.813-3.282-6.813c-0.344-0.715-1.084-1.173-1.897-1.173s-1.551 0.458-1.897 1.173c0 0-3.281 6.813-3.281 6.813s-7.55 1.122-7.55 1.122c-0.776 0.116-1.42 0.646-1.67 1.369-0.25 0.726-0.061 1.526 0.487 2.072 0 0 5.532 5.525 5.532 5.525s-1.283 7.662-1.283 7.662c-0.13 0.771 0.204 1.546 0.86 1.998 0.36 0.247 0.784 0.373 1.207 0.373 0.348 0 0.697-0.086 1.014-0.254 0 0 6.581-3.543 6.581-3.543s6.582 3.543 6.582 3.543c0.317 0.168 0.666 0.254 1.013 0.254 0.424 0 0.846-0.126 1.208-0.373 0.655-0.452 0.989-1.227 0.86-1.998 0 0-1.284-7.662-1.284-7.662s5.533-5.525 5.533-5.525c0.548-0.546 0.736-1.346 0.487-2.072zM22.879 18.595c-0.464 0.464-0.675 1.114-0.568 1.753 0 0 1.283 7.663 1.283 7.663s-6.581-3.542-6.581-3.542c-0.316-0.169-0.665-0.255-1.014-0.255s-0.697 0.086-1.013 0.255c0 0-6.582 3.542-6.582 3.542s1.284-7.663 1.284-7.663c0.107-0.639-0.104-1.289-0.568-1.753 0 0-5.532-5.524-5.532-5.524s7.549-1.123 7.549-1.123c0.69-0.104 1.284-0.535 1.58-1.15 0 0 3.281-6.811 3.281-6.811s3.282 6.811 3.282 6.811c0.297 0.615 0.89 1.047 1.58 1.15 0 0 7.55 1.123 7.55 1.123s-5.532 5.524-5.532 5.524z"></path>
</symbol>
<symbol id="icon-user" viewBox="0 0 32 32">
<title>icon-user</title>
<path d="M29.431 27.409c-0.178-0.118-3.42-2.245-8.242-3.288 1.769-2.242 2.905-5.256 3.387-7.262 0.669-2.781 0.41-8.221-2.26-11.611-1.561-1.981-3.745-3.028-6.315-3.028s-4.754 1.047-6.315 3.028c-2.67 3.39-2.93 8.83-2.26 11.611 0.483 2.005 1.618 5.019 3.387 7.262-4.822 1.043-8.064 3.17-8.242 3.288-0.652 0.434-0.943 1.245-0.715 1.994s0.918 1.263 1.701 1.263c0 0 24.889 0 24.889 0 0.783 0 1.475-0.514 1.701-1.263s-0.063-1.559-0.715-1.994zM19.792 23.020c0 0-0.291 0.369-0.291 0.369-2.12 2.435-4.884 2.435-7.004 0 0 0-0.291-0.369-0.291-0.369-2.476-3.138-3.704-7.285-3.175-11.244 0.485-3.804 2.665-7.777 6.968-7.777s6.483 3.973 6.968 7.777c0.526 3.96-0.698 8.105-3.175 11.244zM3.556 28.888c0.122-0.082 3.135-2.057 7.632-3.029 0 0 2.208-0.479 2.208-0.479 0.787 0.518 1.653 0.842 2.604 0.842s1.817-0.323 2.604-0.842c0 0 2.208 0.479 2.208 0.479 4.463 0.965 7.463 2.917 7.632 3.029 0 0-24.889 0-24.889 0z"></path>
</symbol>
<symbol id="icon-world" viewBox="0 0 32 32">
<title>icon-world</title>
<path d="M16 1.599c-7.953 0-14.4 6.447-14.4 14.4s6.447 14.4 14.4 14.4c7.953 0 14.4-6.447 14.4-14.4s-6.447-14.4-14.4-14.4zM28.518 15.534c0 0-5.571 0-5.571 0-0.051-2.057-0.416-4.024-1.066-5.822 1.253-0.524 2.412-1.219 3.47-2.041 1.88 2.109 3.056 4.848 3.166 7.863zM15.487 28.515c-1.544-1.286-2.839-2.955-3.787-4.894 1.216-0.38 2.505-0.588 3.836-0.63 0 0 0 5.526 0 5.526-0.016-0.001-0.033-0.002-0.049-0.003zM16.513 3.483c1.752 1.459 3.182 3.413 4.149 5.691-1.324 0.454-2.732 0.716-4.197 0.763 0 0 0-6.456 0-6.456 0.016 0.001 0.032 0.002 0.048 0.002zM18.059 3.642c2.564 0.426 4.866 1.624 6.656 3.358-0.973 0.745-2.036 1.378-3.184 1.856-0.846-2.005-2.032-3.776-3.472-5.214zM15.535 3.481c0 0 0 6.456 0 6.456-1.465-0.047-2.873-0.309-4.197-0.763 0.967-2.278 2.397-4.232 4.149-5.691 0.016-0.001 0.032-0.002 0.048-0.002zM10.468 8.856c-1.148-0.479-2.211-1.111-3.184-1.856 1.79-1.734 4.092-2.932 6.656-3.358-1.44 1.438-2.626 3.209-3.472 5.214zM10.988 10.031c1.433 0.498 2.959 0.787 4.547 0.835 0 0 0 4.668 0 4.668s-5.554 0-5.554 0c0.050-1.945 0.395-3.804 1.007-5.504zM15.535 16.464c0 0 0 5.597 0 5.597-1.465 0.044-2.881 0.285-4.217 0.714-0.805-1.915-1.279-4.049-1.337-6.311 0 0 5.554 0 5.554 0zM13.941 28.357c-2.297-0.382-4.384-1.382-6.080-2.835 0.915-0.634 1.904-1.171 2.961-1.58 0.81 1.68 1.871 3.172 3.119 4.415zM16.464 28.517c0 0 0-5.526 0-5.526 1.331 0.042 2.62 0.25 3.836 0.63-0.948 1.938-2.243 3.608-3.787 4.894-0.016 0.001-0.033 0.002-0.049 0.003zM21.178 23.942c1.057 0.409 2.046 0.946 2.961 1.58-1.697 1.453-3.783 2.453-6.080 2.835 1.248-1.244 2.309-2.735 3.119-4.415zM20.681 22.775c-1.335-0.429-2.752-0.67-4.217-0.714 0 0 0-5.597 0-5.597s5.554 0 5.554 0c-0.058 2.262-0.533 4.396-1.337 6.311zM16.464 15.534c0 0 0-4.668 0-4.668 1.589-0.048 3.115-0.337 4.547-0.835 0.612 1.7 0.957 3.559 1.007 5.504 0 0-5.554 0-5.554 0zM6.648 7.671c1.058 0.821 2.217 1.517 3.47 2.041-0.65 1.799-1.015 3.765-1.066 5.822 0 0-5.571 0-5.571 0 0.111-3.015 1.287-5.755 3.166-7.863zM3.482 16.464c0 0 5.571 0 5.571 0 0.058 2.373 0.553 4.614 1.396 6.63-1.177 0.458-2.274 1.071-3.287 1.793-2.182-2.17-3.558-5.138-3.68-8.423zM24.839 24.887c-1.013-0.722-2.11-1.335-3.287-1.793 0.843-2.016 1.338-4.257 1.396-6.63 0 0 5.571 0 5.571 0-0.122 3.285-1.498 6.253-3.68 8.423z"></path>
</symbol>
</defs>
</svg>
