<svg version="1.1" xmlns="http://www.w3.org/2000/svg" xmlns:xlink="http://www.w3.org/1999/xlink" width="15" height="15"><defs/><g><path fill="rgb(255,255,255)" stroke="none" paint-order="stroke fill markers" fill-rule="evenodd" d=" M 7.499948024749756 13.680627822875977 C 4.089847087860107 13.680627822875977 1.3202576637268066 10.909154891967773 1.3202576637268066 7.5009613037109375 C 1.3202576637268066 4.092767715454102 4.089847087860107 1.3192920684814453 7.499948024749756 1.3192920684814453 C 10.908141613006592 1.3192920684814453 13.67969799041748 4.092767715454102 13.67969799041748 7.5009613037109375 C 13.67969799041748 10.909154891967773 10.908141613006592 13.680627822875977 7.499948024749756 13.680627822875977 C 4.09175443649292 13.680627822875977 7.499948024749756 13.680627822875977 7.499948024749756 13.680627822875977 M 12.71285104751587 8.344676971435547 C 12.533143043518066 8.288028717041016 11.080041408538818 7.854440689086914 9.423747539520264 8.120086669921875 C 10.115280628204346 10.016515731811523 10.396495342254639 11.559465408325195 10.447278499603271 11.88376235961914 C 11.636689186096191 11.08095932006836 12.478485584259033 9.811380386352539 12.71285104751587 8.344676971435547 C 12.94727611541748 6.877830505371094 12.71285104751587 8.344676971435547 12.71285104751587 8.344676971435547 M 9.566381454467773 12.369993209838867 C 9.482398509979248 11.905220031738281 9.177759170532227 10.289886474609375 8.435562133789062 8.364274978637695 C 8.423760414123535 8.369997024536133 8.414044857025146 8.371999740600586 8.414044857025146 8.371999740600586 C 5.42379903793335 9.412982940673828 4.35347843170166 11.479499816894531 4.257753372192383 11.672761917114258 C 5.152359485626221 12.37199592590332 6.281271457672119 12.785985946655273 7.499948024749756 12.785985946655273 C 8.230462551116943 12.787988662719727 8.92968463897705 12.639644622802734 9.566381454467773 12.369993209838867 C 10.203078269958496 12.100484848022461 9.566381454467773 12.369993209838867 9.566381454467773 12.369993209838867 M 3.576174259185791 11.03990364074707 C 3.6972908973693848 10.834911346435547 5.14848518371582 8.434513092041016 7.869198799133301 7.5536041259765625 C 7.935598373413086 7.532146453857422 8.003845691680908 7.512691497802734 8.07805347442627 7.489231109619141 C 7.943346977233887 7.190397262573242 7.800772666931152 6.893566131591797 7.650390148162842 6.5945892333984375 C 5.013659477233887 7.385662078857422 2.4569778442382812 7.352474212646484 2.2206454277038574 7.348468780517578 C 2.2187976837158203 7.401397705078125 2.2187976837158203 7.45404052734375 2.2187976837158203 7.506683349609375 C 2.2187976837158203 8.862236022949219 2.7362852096557617 10.100486755371094 3.576174259185791 11.03990364074707 C 4.41606330871582 11.979320526123047 3.576174259185791 11.03990364074707 3.576174259185791 11.03990364074707 M 2.3300795555114746 6.426790237426758 C 2.570286273956299 6.426790237426758 4.742160320281982 6.438377380371094 7.2148590087890625 5.7820587158203125 C 6.339862823486328 4.229381561279297 5.394473552703857 2.9208927154541016 5.255892753601074 2.729490280151367 C 3.779247283935547 3.4285812377929688 2.6718525886535645 4.787996292114258 2.3300795555114746 6.426790237426758 C 1.9882469177246094 8.065441131591797 2.3300795555114746 6.426790237426758 2.3300795555114746 6.426790237426758 M 6.261661529541016 2.3758678436279297 C 6.408169746398926 2.569272994995117 7.3671488761901855 3.873899459838867 8.23439645767212 5.467775344848633 C 10.111287117004395 4.762676239013672 10.906293869018555 3.6942272186279297 10.999992370605469 3.5574703216552734 C 10.06634521484375 2.7313499450683594 8.839860439300537 2.2255210876464844 7.499948024749756 2.2255210876464844 C 7.072284698486328 2.2255210876464844 6.658151626586914 2.2801666259765625 6.261661529541016 2.3758678436279297 C 5.865171432495117 2.471569061279297 6.261661529541016 2.3758678436279297 6.261661529541016 2.3758678436279297 M 11.585965633392334 4.16887092590332 C 11.474564552307129 4.319217681884766 10.591760158538818 5.454042434692383 8.638694763183594 6.252840042114258 C 8.761659145355225 6.502893447875977 8.880868434906006 6.758668899536133 8.990242958068848 7.01458740234375 C 9.029284000396729 7.108285903930664 9.064450740814209 7.198122024536133 9.10349178314209 7.287958145141602 C 10.861292362213135 7.069232940673828 12.605443477630615 7.418849945068359 12.779250621795654 7.459905624389648 C 12.76947546005249 6.209924697875977 12.320294857025146 5.067375183105469 11.585965633392334 4.16887092590332 C 10.851696014404297 3.270366668701172 11.585965633392334 4.16887092590332 11.585965633392334 4.16887092590332"/></g></svg>