<svg version="1.1" xmlns="http://www.w3.org/2000/svg" xmlns:xlink="http://www.w3.org/1999/xlink" width="16" height="13"><defs/><g><path fill="rgb(255,255,255)" stroke="none" paint-order="stroke fill markers" fill-rule="evenodd" d=" M 13.682593822479248 2.6649723052978516 C 13.227452754974365 2.8661022186279297 12.73535680770874 3.002859115600586 12.225558280944824 3.0673751831054688 C 12.74894666671753 2.750946044921875 13.151397228240967 2.2528419494628906 13.340761184692383 1.6630420684814453 C 12.85057258605957 1.9521484375 12.307574272155762 2.164865493774414 11.729468822479248 2.2781620025634766 C 11.268546104431152 1.7840633392333984 10.608365058898926 1.4773616790771484 9.877850532531738 1.4773616790771484 C 8.479465961456299 1.4773616790771484 7.342745780944824 2.6103267669677734 7.342745780944824 4.014659881591797 C 7.342745780944824 4.209924697875977 7.366170406341553 4.4091949462890625 7.4071784019470215 4.590726852416992 C 5.2997965812683105 4.483295440673828 3.430654525756836 3.4773597717285156 2.1825928688049316 1.9422779083251953 C 1.9618768692016602 2.3153553009033203 1.836885929107666 2.750946044921875 1.836885929107666 3.2138595581054688 C 1.836885929107666 4.094625473022461 2.2841591835021973 4.873968124389648 2.963890552520752 5.327154159545898 C 2.5478501319885254 5.315280914306641 2.1610755920410156 5.200124740600586 1.81536865234375 5.010581970214844 C 1.81536865234375 5.018592834472656 1.81536865234375 5.032182693481445 1.81536865234375 5.041910171508789 C 1.81536865234375 6.27043342590332 2.6903648376464844 7.293821334838867 3.8485426902770996 7.528282165527344 C 3.6356945037841797 7.586790084838867 3.4130711555480957 7.616115570068359 3.1806726455688477 7.616115570068359 C 3.0165810585021973 7.616115570068359 2.862264633178711 7.600522994995117 2.704073905944824 7.57505989074707 C 3.0263562202453613 8.580995559692383 3.9638776779174805 9.315277099609375 5.075146675109863 9.33287239074707 C 4.204084396362305 10.014654159545898 3.112246513366699 10.418773651123047 1.926769733428955 10.418773651123047 C 1.7177958488464355 10.418773651123047 1.5146632194519043 10.409189224243164 1.3173718452453613 10.383726119995117 C 2.4442572593688965 11.102415084838867 3.7743945121765137 11.52241325378418 5.2060980796813965 11.52241325378418 C 9.872068881988525 11.52241325378418 12.42088270187378 7.659173965454102 12.42088270187378 4.307485580444336 C 12.42088270187378 4.19819450378418 12.42088270187378 4.0887603759765625 12.414981842041016 3.9794692993164062 C 12.914945602416992 3.618122100830078 13.340761184692383 3.1728038787841797 13.682593822479248 2.6649723052978516 C 14.024366855621338 2.1569976806640625 13.682593822479248 2.6649723052978516 13.682593822479248 2.6649723052978516"/></g></svg>