<svg version="1.1" xmlns="http://www.w3.org/2000/svg" xmlns:xlink="http://www.w3.org/1999/xlink" width="11" height="14"><defs/><g><path fill="rgb(255,182,0)" stroke="none" paint-order="stroke fill markers" fill-rule="evenodd" d=" M 5.626913070678711 1.189056396484375 C 3.368135452270508 1.189056396484375 1.5366039276123047 3.0211124420166016 1.5366039276123047 5.278888702392578 C 1.5366039276123047 5.282751083374023 1.5370807647705078 5.286613464355469 1.5370807647705078 5.290618896484375 C 1.532670021057129 5.466428756713867 1.5463790893554688 5.64996337890625 1.5761218070983887 5.841365814208984 C 1.620110034942627 6.161657333374023 1.7021260261535645 6.472221374511719 1.8168649673461914 6.767192840576172 C 2.736326217651367 9.384313583374023 5.595680236816406 12.58350944519043 5.626436233520508 12.61870002746582 C 5.626436233520508 12.61870002746582 5.626436233520508 12.620702743530273 5.626436233520508 12.620702743530273 C 5.626436233520508 12.620702743530273 5.626913070678711 12.620702743530273 5.626913070678711 12.620702743530273 C 5.626913070678711 12.620702743530273 5.627389907836914 12.620702743530273 5.627389907836914 12.620702743530273 C 5.627389907836914 12.620702743530273 5.627389907836914 12.61870002746582 5.627389907836914 12.61870002746582 C 5.658682346343994 12.58350944519043 8.517082691192627 9.386316299438477 9.436484336853027 6.767192840576172 C 9.552236557006836 6.474224090576172 9.634252548217773 6.161657333374023 9.678181171417236 5.839363098144531 C 9.707506656646729 5.64996337890625 9.721156120300293 5.466428756713867 9.716745376586914 5.290618896484375 C 9.716745376586914 5.286613464355469 9.717281818389893 5.282751083374023 9.717281818389893 5.278888702392578 C 9.717281818389893 3.0211124420166016 7.885690689086914 1.189056396484375 5.626913070678711 1.189056396484375 Z M 5.631800651550293 3.6303672790527344 C 5.630846977233887 3.6303672790527344 5.629833698272705 3.6303672790527344 5.629833698272705 3.6303672790527344 C 5.628403186798096 3.6303672790527344 5.627926349639893 3.6303672790527344 5.626913070678711 3.6303672790527344 C 4.637654781341553 3.6303672790527344 3.8359127044677734 4.433170318603516 3.8359127044677734 5.421367645263672 C 3.8359127044677734 6.411710739135742 4.637654781341553 7.2143707275390625 5.626913070678711 7.2143707275390625 C 5.627926349639893 7.2143707275390625 5.628403186798096 7.2143707275390625 5.629356861114502 7.2143707275390625 C 5.629356861114502 7.2143707275390625 5.630846977233887 7.2143707275390625 5.631800651550293 7.2143707275390625 C 6.621058940887451 7.2143707275390625 7.423337459564209 6.411710739135742 7.423337459564209 5.421367645263672 C 7.423337459564209 4.433170318603516 6.621058940887451 3.6303672790527344 5.631800651550293 3.6303672790527344 Z"/></g></svg>