<svg version="1.1" xmlns="http://www.w3.org/2000/svg" xmlns:xlink="http://www.w3.org/1999/xlink" width="9" height="15"><defs/><g><path fill="rgb(255,255,255)" stroke="none" paint-order="stroke fill markers" fill-rule="evenodd" d=" M 5.472599506378174 13.680627822875977 C 5.472599506378174 13.680627822875977 3.1562438011169434 13.680627822875977 3.1562438011169434 13.680627822875977 C 3.1562438011169434 13.680627822875977 3.1562438011169434 7.5009613037109375 3.1562438011169434 7.5009613037109375 C 3.1562438011169434 7.5009613037109375 1.6112914085388184 7.5009613037109375 1.6112914085388184 7.5009613037109375 C 1.6112914085388184 7.5009613037109375 1.6112914085388184 5.372074127197266 1.6112914085388184 5.372074127197266 C 1.6112914085388184 5.372074127197266 3.1562438011169434 5.372074127197266 3.1562438011169434 5.372074127197266 C 3.1562438011169434 5.372074127197266 3.154336452484131 4.114225387573242 3.154336452484131 4.114225387573242 C 3.154336452484131 2.377870559692383 3.6250343322753906 1.3192920684814453 5.671798229217529 1.3192920684814453 C 5.671798229217529 1.3192920684814453 7.376908302307129 1.3192920684814453 7.376908302307129 1.3192920684814453 C 7.376908302307129 1.3192920684814453 7.376908302307129 3.4521846771240234 7.376908302307129 3.4521846771240234 C 7.376908302307129 3.4521846771240234 6.310521602630615 3.4521846771240234 6.310521602630615 3.4521846771240234 C 5.51170015335083 3.4521846771240234 5.4785003662109375 3.7470130920410156 5.4785003662109375 4.305627822875977 C 5.4785003662109375 4.305627822875977 5.472599506378174 5.372074127197266 5.472599506378174 5.372074127197266 C 5.472599506378174 5.372074127197266 7.3885908126831055 5.372074127197266 7.3885908126831055 5.372074127197266 C 7.3885908126831055 5.372074127197266 7.162093162536621 7.5009613037109375 7.162093162536621 7.5009613037109375 C 7.162093162536621 7.5009613037109375 5.47653341293335 7.5009613037109375 5.47653341293335 7.5009613037109375 C 5.47653341293335 7.5009613037109375 5.472599506378174 13.680627822875977 5.472599506378174 13.680627822875977 Z"/></g></svg>