<svg aria-hidden="true" version="1.1" xmlns="http://www.w3.org/2000/svg" xmlns:xlink="http://www.w3.org/1999/xlink">
<defs>
<symbol id="icon-ball" viewBox="0 0 32 32">
<title>icon-ball</title>
<path d="M16 29.185c-7.275 0-13.183-5.912-13.183-13.183s5.908-13.188 13.183-13.188c7.271 0 13.183 5.917 13.183 13.188s-5.913 13.183-13.183 13.183c-7.271 0 0 0 0 0zM27.121 17.802c-0.383-0.121-3.483-1.046-7.017-0.479 1.475 4.046 2.075 7.337 2.184 8.029 2.537-1.713 4.333-4.421 4.833-7.55s0 0 0 0zM20.408 26.389c-0.179-0.992-0.829-4.438-2.412-8.546-0.025 0.012-0.046 0.016-0.046 0.016-6.379 2.221-8.663 6.629-8.867 7.042 1.909 1.492 4.317 2.375 6.917 2.375 1.558 0.004 3.050-0.312 4.408-0.887s0 0 0 0zM7.629 23.552c0.258-0.437 3.354-5.558 9.158-7.437 0.142-0.046 0.287-0.087 0.446-0.137-0.287-0.637-0.592-1.271-0.912-1.909-5.625 1.688-11.079 1.617-11.583 1.608-0.004 0.113-0.004 0.225-0.004 0.338 0 2.892 1.104 5.533 2.896 7.538s0 0 0 0zM4.971 13.71c0.512 0 5.146 0.025 10.421-1.375-1.867-3.312-3.883-6.104-4.179-6.512-3.15 1.491-5.513 4.391-6.242 7.888s0 0 0 0zM13.358 5.069c0.313 0.413 2.358 3.196 4.208 6.596 4.004-1.504 5.7-3.784 5.9-4.075-1.992-1.762-4.608-2.841-7.467-2.841-0.912 0-1.796 0.117-2.642 0.321s0 0 0 0zM24.717 8.894c-0.238 0.321-2.121 2.742-6.288 4.446 0.262 0.533 0.517 1.079 0.75 1.625 0.083 0.2 0.158 0.392 0.242 0.583 3.75-0.467 7.471 0.279 7.842 0.367-0.021-2.667-0.979-5.104-2.546-7.021s0 0 0 0z"></path>
</symbol>
<symbol id="icon-facebook" viewBox="0 0 19 32">
<title>icon-facebook</title>
<path d="M11.675 29.185c0 0-4.942 0-4.942 0s0-13.183 0-13.183c0 0-3.296 0-3.296 0s0-4.542 0-4.542c0 0 3.296 0 3.296 0s-0.004-2.683-0.004-2.683c0-3.704 1.004-5.963 5.371-5.963 0 0 3.638 0 3.638 0s0 4.55 0 4.55c0 0-2.275 0-2.275 0-1.704 0-1.775 0.629-1.775 1.821 0 0-0.013 2.275-0.013 2.275s4.087 0 4.087 0c0 0-0.483 4.542-0.483 4.542s-3.596 0-3.596 0c0 0-0.008 13.183-0.008 13.183z"></path>
</symbol>
<symbol id="icon-gps" viewBox="0 0 25 32">
<title>icon-gps</title>
<path d="M12.861 2.718c5.163 0 9.349 4.188 9.349 9.348 0 0.009-0.001 0.018-0.001 0.027 0.010 0.402-0.021 0.821-0.088 1.254-0.1 0.737-0.288 1.451-0.552 2.121-2.102 5.987-8.635 13.294-8.707 13.375 0 0 0 0.005 0 0.005s-0.001 0-0.001 0c0 0-0.001 0-0.001 0s0-0.005 0-0.005c-0.070-0.080-6.606-7.393-8.708-13.375-0.262-0.674-0.45-1.384-0.55-2.116-0.068-0.438-0.099-0.857-0.089-1.259 0-0.009-0.001-0.018-0.001-0.027 0-5.161 4.186-9.348 9.349-9.348zM12.873 8.298c-0.002 0-0.005 0-0.005 0-0.003 0-0.004 0-0.007 0-2.261 0-4.094 1.835-4.094 4.094 0 2.264 1.833 4.098 4.094 4.098 0.002 0 0.003 0 0.006 0 0 0 0.003 0 0.006 0 2.261 0 4.095-1.835 4.095-4.098 0-2.259-1.834-4.094-4.095-4.094z"></path>
</symbol>
<symbol id="icon-twitter" viewBox="0 0 39 32">
<title>icon-twitter</title>
<path d="M33.68 6.56c-1.12 0.495-2.332 0.832-3.587 0.991 1.288-0.779 2.279-2.005 2.745-3.457-1.207 0.712-2.543 1.235-3.966 1.514-1.135-1.216-2.76-1.971-4.558-1.971-3.442 0-6.24 2.789-6.24 6.246 0 0.481 0.058 0.971 0.159 1.418-5.187-0.264-9.788-2.741-12.861-6.519-0.543 0.918-0.851 1.991-0.851 3.13 0 2.168 1.101 4.086 2.774 5.202-1.024-0.029-1.976-0.313-2.827-0.779 0 0.020 0 0.053 0 0.077 0 3.024 2.154 5.543 5.005 6.12-0.524 0.144-1.072 0.216-1.644 0.216-0.404 0-0.784-0.038-1.173-0.101 0.793 2.476 3.101 4.284 5.836 4.327-2.144 1.678-4.832 2.673-7.75 2.673-0.514 0-1.014-0.024-1.5-0.086 2.774 1.769 6.048 2.803 9.572 2.803 11.485 0 17.759-9.509 17.759-17.76 0-0.269 0-0.538-0.015-0.807 1.231-0.889 2.279-1.986 3.12-3.236s0 0 0 0z"></path>
</symbol>
</defs>
</svg>
