<svg aria-hidden="true" style="position: absolute; width: 0; height: 0; overflow: hidden;" version="1.1" xmlns="http://www.w3.org/2000/svg" xmlns:xlink="http://www.w3.org/1999/xlink">
<defs>
<symbol id="icon-arrowOnImg" viewBox="0 0 84 32">
<title>arrowOnImg</title>
<path d="M41.846 4.915c0 0 36.946 24.618 36.946 24.618s-73.892 0-73.892 0c0 0 36.946-24.618 36.946-24.618z"></path>
</symbol>
<symbol id="icon-link" viewBox="0 0 32 32">
<title>link</title>
<path d="M27.999 3.993c-2.746-2.749-7.246-2.749-9.993 0 0 0-5.395 5.398-5.395 5.398 1.85-0.527 3.857-0.389 5.61 0.43 0 0 2.805-2.807 2.805-2.807 1.091-1.092 2.864-1.092 3.954 0s1.091 2.864 0 3.956c0 0-3.526 3.528-3.526 3.528s-2.318 2.318-2.318 2.318c-1.091 1.092-2.863 1.092-3.954 0 0 0-3.019 3.022-3.019 3.022 0.701 0.702 1.519 1.227 2.376 1.56 2.318 0.915 5.006 0.565 7.032-1.034 0.195-0.156 0.409-0.331 0.584-0.526 0 0 3.642-3.645 3.642-3.645s2.201-2.203 2.201-2.203c2.766-2.749 2.766-7.232 0-9.998zM13.643 22.313c0 0-2.688 2.691-2.688 2.691-1.091 1.092-2.863 1.092-3.954 0s-1.091-2.865 0-3.957c0 0 5.844-5.846 5.844-5.846 1.091-1.092 2.863-1.092 3.954 0 0 0 3.019-3.022 3.019-3.022-0.701-0.702-1.519-1.228-2.376-1.558-2.435-0.976-5.298-0.528-7.344 1.305-0.097 0.078-0.195 0.176-0.273 0.254 0 0-5.844 5.848-5.844 5.848-2.747 2.747-2.747 7.249 0 9.997 2.746 2.75 7.246 2.75 9.992 0 0 0 5.279-5.34 5.279-5.34-2.688 0.623-3.311 0.546-5.61-0.371z"></path>
</symbol>
<symbol id="icon-lupa" viewBox="0 0 34 32">
<title>lupa</title>
<path d="M14.583 6.023c-0.861 0-1.559 0.689-1.559 1.535 0 0.85 0.698 1.537 1.559 1.537 1.905 0 3.606 1.049 4.442 2.737 0.27 0.547 0.824 0.863 1.402 0.863 0.23 0 0.462-0.051 0.683-0.155 0.774-0.372 1.096-1.292 0.718-2.055-1.362-2.752-4.138-4.463-7.244-4.463zM31.355 27.119c0 0-5.195-5.118-5.195-5.118 1.538-2.132 2.451-4.73 2.451-7.539 0-7.199-5.945-13.057-13.252-13.057s-13.252 5.858-13.252 13.057c0 7.198 5.945 13.056 13.252 13.056 3.053 0 5.859-1.032 8.102-2.747 0 0 5.138 5.062 5.138 5.062 0.381 0.376 0.88 0.562 1.378 0.562s0.998-0.186 1.378-0.562c0.761-0.748 0.761-1.965 0-2.714zM5.225 14.462c0-5.505 4.547-9.984 10.134-9.984s10.134 4.479 10.134 9.984c0 2.29-0.794 4.398-2.117 6.084-0.437 0.557-0.928 1.071-1.473 1.527-1.767 1.478-4.050 2.374-6.544 2.374-5.588-0.001-10.134-4.48-10.134-9.985z"></path>
</symbol>
</defs>
</svg>
